<svg width="1216" height="269" viewBox="0 0 1216 269" fill="none" xmlns="http://www.w3.org/2000/svg">
<path d="M32.1094 131H6.5625V63.3594H32.2031C37.9844 63.3594 42.6562 64.9062 46.2188 68C49.8125 71.0938 51.6094 75.1719 51.6094 80.2344C51.6094 83.7656 50.4688 86.9688 48.1875 89.8438C45.9375 92.6875 43.1875 94.4062 39.9375 95V95.375C44.5312 95.9688 48.1875 97.7656 50.9062 100.766C53.6562 103.766 55.0312 107.516 55.0312 112.016C55.0312 117.984 53 122.641 48.9375 125.984C44.9062 129.328 39.2969 131 32.1094 131ZM15 70.8125V92.5156H27.6562C32.6562 92.5156 36.4688 91.5469 39.0938 89.6094C41.75 87.6719 43.0781 84.875 43.0781 81.2188C43.0781 77.875 41.9688 75.3125 39.75 73.5312C37.5312 71.7188 34.375 70.8125 30.2812 70.8125H15ZM15 123.547H30.8438C35.9375 123.547 39.7969 122.531 42.4219 120.5C45.0469 118.469 46.3594 115.5 46.3594 111.594C46.3594 103.719 40.9219 99.7812 30.0469 99.7812H15V123.547ZM103.359 82.25V131H95.625V123.078H95.4375C92.4062 128.922 87.25 131.844 79.9688 131.844C74.6875 131.844 70.5469 130.25 67.5469 127.062C64.5781 123.844 63.0938 119.453 63.0938 113.891V82.25H71.25V112.438C71.25 120.562 75 124.625 82.5 124.625C86.4375 124.625 89.5312 123.391 91.7812 120.922C94.0625 118.422 95.2031 115.078 95.2031 110.891V82.25H103.359ZM114.375 131V82.25H122.531V131H114.375ZM118.453 74.0469C117.078 74.0469 115.891 73.5469 114.891 72.5469C113.891 71.5469 113.391 70.3594 113.391 68.9844C113.391 67.5781 113.891 66.3906 114.891 65.4219C115.891 64.4219 117.078 63.9219 118.453 63.9219C119.859 63.9219 121.062 64.4219 122.062 65.4219C123.062 66.3906 123.562 67.5781 123.562 68.9844C123.562 70.3594 123.062 71.5469 122.062 72.5469C121.062 73.5469 119.859 74.0469 118.453 74.0469ZM133.969 131V63.3594H142.125V131H133.969ZM171.609 131.844C165.359 131.844 160.312 129.547 156.469 124.953C152.656 120.359 150.75 114.25 150.75 106.625C150.75 99.0312 152.656 92.9375 156.469 88.3438C160.281 83.7188 165.266 81.4062 171.422 81.4062C174.859 81.4062 177.938 82.1875 180.656 83.75C183.375 85.3125 185.469 87.4531 186.938 90.1719H187.125V63.3594H195.281V131H187.5V122.75H187.359C185.766 125.594 183.609 127.828 180.891 129.453C178.172 131.047 175.078 131.844 171.609 131.844ZM173.156 88.5781C168.844 88.5781 165.422 90.2188 162.891 93.5C160.359 96.75 159.094 101.125 159.094 106.625C159.094 112.156 160.359 116.547 162.891 119.797C165.422 123.047 168.844 124.672 173.156 124.672C177.375 124.672 180.766 123.031 183.328 119.75C185.891 116.438 187.172 112.062 187.172 106.625C187.172 101.188 185.875 96.8281 183.281 93.5469C180.719 90.2344 177.344 88.5781 173.156 88.5781ZM206.719 131V82.25H214.875V131H206.719ZM210.797 74.0469C209.422 74.0469 208.234 73.5469 207.234 72.5469C206.234 71.5469 205.734 70.3594 205.734 68.9844C205.734 67.5781 206.234 66.3906 207.234 65.4219C208.234 64.4219 209.422 63.9219 210.797 63.9219C212.203 63.9219 213.406 64.4219 214.406 65.4219C215.406 66.3906 215.906 67.5781 215.906 68.9844C215.906 70.3594 215.406 71.5469 214.406 72.5469C213.406 73.5469 212.203 74.0469 210.797 74.0469ZM225.891 131V82.25H233.578V90.0312H233.766C235.172 87.3125 237.188 85.2031 239.812 83.7031C242.438 82.1719 245.578 81.4062 249.234 81.4062C254.547 81.4062 258.688 83.0156 261.656 86.2344C264.625 89.4219 266.109 93.7969 266.109 99.3594V131H257.953V100.812C257.953 96.8438 257.016 93.8281 255.141 91.7656C253.266 89.6719 250.469 88.625 246.75 88.625C242.906 88.625 239.828 89.875 237.516 92.375C235.203 94.875 234.047 98.1875 234.047 102.312V131H225.891ZM296.344 124.203C300.594 124.203 304.016 122.578 306.609 119.328C309.203 116.078 310.5 111.781 310.5 106.438C310.5 101.062 309.203 96.75 306.609 93.5C304.016 90.2188 300.594 88.5781 296.344 88.5781C292.125 88.5781 288.75 90.2031 286.219 93.4531C283.719 96.6719 282.469 101 282.469 106.438C282.469 111.875 283.719 116.203 286.219 119.422C288.75 122.609 292.125 124.203 296.344 124.203ZM296.625 149.375C291.281 149.375 286.688 148.016 282.844 145.297C279 142.609 276.734 139.188 276.047 135.031H284.438C285.25 137.281 286.781 139.078 289.031 140.422C291.281 141.766 293.922 142.438 296.953 142.438C301.141 142.438 304.438 141.328 306.844 139.109C309.281 136.891 310.5 133.953 310.5 130.297V122.609H310.312C308.781 125.297 306.641 127.438 303.891 129.031C301.141 130.594 298.078 131.375 294.703 131.375C288.484 131.375 283.5 129.109 279.75 124.578C276 120.047 274.125 114 274.125 106.438C274.125 98.8125 276 92.7344 279.75 88.2031C283.531 83.6719 288.578 81.4062 294.891 81.4062C298.328 81.4062 301.422 82.2031 304.172 83.7969C306.922 85.3906 309.109 87.6094 310.734 90.4531H310.875V82.25H318.656V130.016C318.656 135.859 316.656 140.547 312.656 144.078C308.656 147.609 303.312 149.375 296.625 149.375Z" fill="black"/>
<path d="M363.469 131H349.312V63.3594H393.609V75.0312H363.469V93.1719H390.984V104.375H363.469V131ZM447.234 80.75V131H434.016V121.953H433.734C431.109 128.609 426.094 131.938 418.688 131.938C413.188 131.938 408.797 130.266 405.516 126.922C402.234 123.547 400.594 118.953 400.594 113.141V80.75H414.281V110.281C414.281 113.625 415.078 116.172 416.672 117.922C418.297 119.672 420.625 120.547 423.656 120.547C426.688 120.547 429.094 119.547 430.875 117.547C432.656 115.547 433.547 112.875 433.547 109.531V80.75H447.234ZM459.797 69.1719H473.484V80.75H482.766V91.0625H473.484V115.109C473.484 118.891 475.453 120.781 479.391 120.781C480.672 120.781 481.781 120.703 482.719 120.547V130.625C481.125 131 478.953 131.188 476.203 131.188C470.297 131.188 466.078 130.125 463.547 128C461.047 125.875 459.797 122.359 459.797 117.453V91.0625H452.719V80.75H459.797V69.1719ZM536.672 80.75V131H523.453V121.953H523.172C520.547 128.609 515.531 131.938 508.125 131.938C502.625 131.938 498.234 130.266 494.953 126.922C491.672 123.547 490.031 118.953 490.031 113.141V80.75H503.719V110.281C503.719 113.625 504.516 116.172 506.109 117.922C507.734 119.672 510.062 120.547 513.094 120.547C516.125 120.547 518.531 119.547 520.312 117.547C522.094 115.547 522.984 112.875 522.984 109.531V80.75H536.672ZM545.578 131V80.75H558.797V89.7969H559.078C559.953 86.6094 561.422 84.1719 563.484 82.4844C565.547 80.7969 568.062 79.9531 571.031 79.9531C572.469 79.9531 573.766 80.125 574.922 80.4688V92.5156C573.641 91.9844 571.984 91.7188 569.953 91.7188C566.578 91.7188 563.953 92.7031 562.078 94.6719C560.203 96.6406 559.266 99.3906 559.266 102.922V131H545.578ZM601.406 89.7969C598.438 89.7969 595.953 90.8125 593.953 92.8438C591.984 94.875 590.875 97.4688 590.625 100.625H611.953C611.797 97.4062 610.75 94.7969 608.812 92.7969C606.906 90.7969 604.438 89.7969 601.406 89.7969ZM612.141 115.625H624.703C623.953 120.562 621.484 124.547 617.297 127.578C613.141 130.578 607.969 132.078 601.781 132.078C594.062 132.078 588 129.766 583.594 125.141C579.219 120.516 577.031 114.172 577.031 106.109C577.031 98.0781 579.219 91.6719 583.594 86.8906C587.969 82.0781 593.859 79.6719 601.266 79.6719C608.547 79.6719 614.344 81.9531 618.656 86.5156C622.969 91.0781 625.125 97.1875 625.125 104.844V109.016H590.484V109.859C590.484 113.453 591.531 116.375 593.625 118.625C595.75 120.844 598.547 121.953 602.016 121.953C604.516 121.953 606.672 121.391 608.484 120.266C610.297 119.109 611.516 117.562 612.141 115.625ZM74.9531 195.75L61.6406 246H47.0625L37.9688 210.469H37.6875L28.6406 246H14.25L0.890625 195.75H14.6719L22.2656 233.016H22.5469L31.4531 195.75H44.5781L53.5312 233.016H53.8125L61.4531 195.75H74.9531ZM80.5312 246V195.75H94.2188V246H80.5312ZM92.5781 188.156C91.1719 189.531 89.4375 190.219 87.375 190.219C85.3125 190.219 83.5781 189.531 82.1719 188.156C80.7656 186.781 80.0625 185.109 80.0625 183.141C80.0625 181.141 80.7656 179.469 82.1719 178.125C83.5781 176.75 85.3125 176.062 87.375 176.062C89.4375 176.062 91.1719 176.75 92.5781 178.125C93.9844 179.469 94.6875 181.141 94.6875 183.141C94.6875 185.109 93.9844 186.781 92.5781 188.156ZM107.016 184.172H120.703V195.75H129.984V206.062H120.703V230.109C120.703 233.891 122.672 235.781 126.609 235.781C127.891 235.781 129 235.703 129.938 235.547V245.625C128.344 246 126.172 246.188 123.422 246.188C117.516 246.188 113.297 245.125 110.766 243C108.266 240.875 107.016 237.359 107.016 232.453V206.062H99.9375V195.75H107.016V184.172ZM137.812 246V178.359H151.266V204.703H151.547C152.891 201.516 154.906 199.078 157.594 197.391C160.312 195.672 163.562 194.812 167.344 194.812C172.875 194.812 177.172 196.5 180.234 199.875C183.328 203.219 184.875 207.812 184.875 213.656V246H171.188V216.562C171.188 213.281 170.375 210.734 168.75 208.922C167.156 207.078 164.828 206.156 161.766 206.156C158.578 206.156 156.062 207.188 154.219 209.25C152.406 211.281 151.5 213.969 151.5 217.312V246H137.812ZM243.797 246H213.844V178.359H243.281C249.625 178.359 254.656 179.875 258.375 182.906C262.094 185.938 263.953 190.047 263.953 195.234C263.953 198.922 262.734 202.156 260.297 204.938C257.891 207.719 254.875 209.375 251.25 209.906V210.281C255.875 210.625 259.688 212.328 262.688 215.391C265.688 218.453 267.188 222.203 267.188 226.641C267.188 232.609 265.094 237.328 260.906 240.797C256.719 244.266 251.016 246 243.797 246ZM228 188.906V206.484H238.172C241.953 206.484 244.875 205.703 246.938 204.141C249 202.547 250.031 200.312 250.031 197.438C250.031 194.719 249.125 192.625 247.312 191.156C245.5 189.656 242.938 188.906 239.625 188.906H228ZM228 235.453H240.188C244.281 235.453 247.391 234.609 249.516 232.922C251.672 231.203 252.75 228.734 252.75 225.516C252.75 222.359 251.641 219.953 249.422 218.297C247.234 216.641 244.047 215.812 239.859 215.812H228V235.453ZM274.312 246V195.75H288V246H274.312ZM286.359 188.156C284.953 189.531 283.219 190.219 281.156 190.219C279.094 190.219 277.359 189.531 275.953 188.156C274.547 186.781 273.844 185.109 273.844 183.141C273.844 181.141 274.547 179.469 275.953 178.125C277.359 176.75 279.094 176.062 281.156 176.062C283.219 176.062 284.953 176.75 286.359 178.125C287.766 179.469 288.469 181.141 288.469 183.141C288.469 185.109 287.766 186.781 286.359 188.156ZM338.391 240.141C333.922 244.766 327.859 247.078 320.203 247.078C312.547 247.078 306.484 244.75 302.016 240.094C297.547 235.438 295.312 229.016 295.312 220.828C295.312 212.734 297.562 206.359 302.062 201.703C306.594 197.016 312.641 194.672 320.203 194.672C327.797 194.672 333.844 197.016 338.344 201.703C342.844 206.359 345.094 212.734 345.094 220.828C345.094 229.047 342.859 235.484 338.391 240.141ZM320.203 236.625C323.578 236.625 326.25 235.25 328.219 232.5C330.188 229.75 331.172 225.875 331.172 220.875C331.172 215.938 330.188 212.078 328.219 209.297C326.25 206.516 323.578 205.125 320.203 205.125C316.828 205.125 314.141 206.516 312.141 209.297C310.172 212.078 309.188 215.938 309.188 220.875C309.188 225.875 310.172 229.75 312.141 232.5C314.109 235.25 316.797 236.625 320.203 236.625ZM352.5 246V178.359H366.188V246H352.5ZM416.672 240.141C412.203 244.766 406.141 247.078 398.484 247.078C390.828 247.078 384.766 244.75 380.297 240.094C375.828 235.438 373.594 229.016 373.594 220.828C373.594 212.734 375.844 206.359 380.344 201.703C384.875 197.016 390.922 194.672 398.484 194.672C406.078 194.672 412.125 197.016 416.625 201.703C421.125 206.359 423.375 212.734 423.375 220.828C423.375 229.047 421.141 235.484 416.672 240.141ZM398.484 236.625C401.859 236.625 404.531 235.25 406.5 232.5C408.469 229.75 409.453 225.875 409.453 220.875C409.453 215.938 408.469 212.078 406.5 209.297C404.531 206.516 401.859 205.125 398.484 205.125C395.109 205.125 392.422 206.516 390.422 209.297C388.453 212.078 387.469 215.938 387.469 220.875C387.469 225.875 388.453 229.75 390.422 232.5C392.391 235.25 395.078 236.625 398.484 236.625ZM453.656 235.312C457.094 235.312 459.812 234.031 461.812 231.469C463.844 228.875 464.859 225.312 464.859 220.781C464.859 216.25 463.844 212.641 461.812 209.953C459.781 207.266 457.062 205.922 453.656 205.922C450.281 205.922 447.594 207.266 445.594 209.953C443.625 212.609 442.641 216.219 442.641 220.781C442.641 225.344 443.625 228.906 445.594 231.469C447.562 234.031 450.25 235.312 453.656 235.312ZM453.422 264.938C446.891 264.938 441.516 263.5 437.297 260.625C433.109 257.781 430.734 254.094 430.172 249.562H443.578C444.109 251.312 445.297 252.719 447.141 253.781C449.016 254.875 451.234 255.422 453.797 255.422C457.266 255.422 459.969 254.531 461.906 252.75C463.844 251 464.812 248.641 464.812 245.672V236.859H464.531C463.344 239.578 461.359 241.766 458.578 243.422C455.797 245.047 452.609 245.859 449.016 245.859C442.828 245.859 437.875 243.609 434.156 239.109C430.469 234.609 428.625 228.469 428.625 220.688C428.625 212.719 430.469 206.438 434.156 201.844C437.844 197.25 442.875 194.953 449.25 194.953C452.812 194.953 455.953 195.812 458.672 197.531C461.391 199.25 463.422 201.578 464.766 204.516H465V195.75H478.5V245.297C478.5 251.266 476.203 256.031 471.609 259.594C467.047 263.156 460.984 264.938 453.422 264.938ZM493.875 264.609C490.875 264.609 489.156 264.562 488.719 264.469V253.922C489 253.984 490.141 254.016 492.141 254.016C494.672 254.016 496.594 253.578 497.906 252.703C499.219 251.859 500.109 250.438 500.578 248.438C500.578 248.406 500.656 248.016 500.812 247.266C500.969 246.516 501.031 246.109 501 246.047L483.516 195.75H498.562L509.25 235.031H509.484L520.172 195.75H534.609L517.312 247.125C515.156 253.562 512.312 258.078 508.781 260.672C505.281 263.297 500.312 264.609 493.875 264.609Z" fill="white"/>
<rect width="100" height="8" fill="white"/>
<path d="M550 219H1215.5" stroke="black" stroke-width="2"/>
</svg>
