<svg width="1059" height="269" viewBox="0 0 1059 269" fill="none" xmlns="http://www.w3.org/2000/svg">
<path d="M32.1094 131H23.6719V70.9531H2.34375V63.3594H53.4375V70.9531H32.1094V131ZM64.5 124.906C68.3438 124.906 71.5625 123.719 74.1562 121.344C76.7812 118.938 78.0938 115.984 78.0938 112.484V108.5L65.0625 109.297C61.7812 109.516 59.2344 110.312 57.4219 111.688C55.6406 113.062 54.75 114.906 54.75 117.219C54.75 119.531 55.6406 121.391 57.4219 122.797C59.2031 124.203 61.5625 124.906 64.5 124.906ZM62.6719 131.844C57.8281 131.844 53.9062 130.5 50.9062 127.812C47.9375 125.125 46.4531 121.594 46.4531 117.219C46.4531 113.031 47.9844 109.688 51.0469 107.188C54.1406 104.688 58.5 103.281 64.125 102.969L78.0938 102.172V98.0938C78.0938 95.125 77.1562 92.7969 75.2812 91.1094C73.4062 89.4219 70.7812 88.5781 67.4062 88.5781C64.3125 88.5781 61.7969 89.2656 59.8594 90.6406C57.9219 91.9844 56.6875 93.875 56.1562 96.3125H48.2812C48.5625 91.9688 50.4375 88.4062 53.9062 85.625C57.4062 82.8125 61.9688 81.4062 67.5938 81.4062C73.3125 81.4062 77.8438 82.8438 81.1875 85.7188C84.5625 88.5938 86.25 92.4531 86.25 97.2969V131H78.5156V122.609H78.3281C76.8594 125.391 74.7031 127.625 71.8594 129.312C69.0156 131 65.9531 131.844 62.6719 131.844ZM105.188 103.906L126.75 82.25H136.641L115.5 103.297L137.297 131H127.828L109.734 108.312L105.188 112.625V131H97.0312V63.3594H105.188V103.906ZM143.625 131V82.25H151.781V131H143.625ZM147.703 74.0469C146.328 74.0469 145.141 73.5469 144.141 72.5469C143.141 71.5469 142.641 70.3594 142.641 68.9844C142.641 67.5781 143.141 66.3906 144.141 65.4219C145.141 64.4219 146.328 63.9219 147.703 63.9219C149.109 63.9219 150.312 64.4219 151.312 65.4219C152.312 66.3906 152.812 67.5781 152.812 68.9844C152.812 70.3594 152.312 71.5469 151.312 72.5469C150.312 73.5469 149.109 74.0469 147.703 74.0469ZM162.797 131V82.25H170.484V90.0312H170.672C172.078 87.3125 174.094 85.2031 176.719 83.7031C179.344 82.1719 182.484 81.4062 186.141 81.4062C191.453 81.4062 195.594 83.0156 198.562 86.2344C201.531 89.4219 203.016 93.7969 203.016 99.3594V131H194.859V100.812C194.859 96.8438 193.922 93.8281 192.047 91.7656C190.172 89.6719 187.375 88.625 183.656 88.625C179.812 88.625 176.734 89.875 174.422 92.375C172.109 94.875 170.953 98.1875 170.953 102.312V131H162.797ZM233.25 124.203C237.5 124.203 240.922 122.578 243.516 119.328C246.109 116.078 247.406 111.781 247.406 106.438C247.406 101.062 246.109 96.75 243.516 93.5C240.922 90.2188 237.5 88.5781 233.25 88.5781C229.031 88.5781 225.656 90.2031 223.125 93.4531C220.625 96.6719 219.375 101 219.375 106.438C219.375 111.875 220.625 116.203 223.125 119.422C225.656 122.609 229.031 124.203 233.25 124.203ZM233.531 149.375C228.188 149.375 223.594 148.016 219.75 145.297C215.906 142.609 213.641 139.188 212.953 135.031H221.344C222.156 137.281 223.688 139.078 225.938 140.422C228.188 141.766 230.828 142.438 233.859 142.438C238.047 142.438 241.344 141.328 243.75 139.109C246.188 136.891 247.406 133.953 247.406 130.297V122.609H247.219C245.688 125.297 243.547 127.438 240.797 129.031C238.047 130.594 234.984 131.375 231.609 131.375C225.391 131.375 220.406 129.109 216.656 124.578C212.906 120.047 211.031 114 211.031 106.438C211.031 98.8125 212.906 92.7344 216.656 88.2031C220.438 83.6719 225.484 81.4062 231.797 81.4062C235.234 81.4062 238.328 82.2031 241.078 83.7969C243.828 85.3906 246.016 87.6094 247.641 90.4531H247.781V82.25H255.562V130.016C255.562 135.859 253.562 140.547 249.562 144.078C245.562 147.609 240.219 149.375 233.531 149.375Z" fill="black"/>
<path d="M345 131H330.844V102.5H300.375V131H286.219V63.3594H300.375V90.8281H330.844V63.3594H345V131ZM401.484 80.75V131H388.266V121.953H387.984C385.359 128.609 380.344 131.938 372.938 131.938C367.438 131.938 363.047 130.266 359.766 126.922C356.484 123.547 354.844 118.953 354.844 113.141V80.75H368.531V110.281C368.531 113.625 369.328 116.172 370.922 117.922C372.547 119.672 374.875 120.547 377.906 120.547C380.938 120.547 383.344 119.547 385.125 117.547C386.906 115.547 387.797 112.875 387.797 109.531V80.75H401.484ZM410.391 131V80.75H423.609V89.8438H423.891C424.953 86.7812 426.766 84.3438 429.328 82.5312C431.891 80.7188 434.859 79.8125 438.234 79.8125C441.859 79.8125 444.891 80.7188 447.328 82.5312C449.766 84.3125 451.406 86.8438 452.25 90.125H452.531C453.656 86.9688 455.609 84.4688 458.391 82.625C461.203 80.75 464.453 79.8125 468.141 79.8125C473.078 79.8125 477.047 81.3594 480.047 84.4531C483.078 87.5469 484.594 91.625 484.594 96.6875V131H470.906V100.109C470.906 97.2031 470.203 94.9844 468.797 93.4531C467.391 91.8906 465.359 91.1094 462.703 91.1094C460.109 91.1094 458.016 91.9688 456.422 93.6875C454.859 95.4062 454.078 97.6719 454.078 100.484V131H440.906V99.6875C440.906 97 440.188 94.9062 438.75 93.4062C437.312 91.875 435.328 91.1094 432.797 91.1094C430.203 91.1094 428.094 92 426.469 93.7812C424.875 95.5625 424.078 97.8594 424.078 100.672V131H410.391ZM512.672 121.906C515.703 121.906 518.266 121.031 520.359 119.281C522.484 117.5 523.547 115.266 523.547 112.578V108.922L512.953 109.578C510.391 109.766 508.406 110.406 507 111.5C505.625 112.594 504.938 114.031 504.938 115.812C504.938 117.688 505.641 119.172 507.047 120.266C508.453 121.359 510.328 121.906 512.672 121.906ZM508.172 131.797C503.328 131.797 499.312 130.375 496.125 127.531C492.938 124.688 491.344 121.031 491.344 116.562C491.344 112 493.031 108.422 496.406 105.828C499.781 103.234 504.609 101.75 510.891 101.375L523.547 100.625V97.2969C523.547 94.9844 522.781 93.1719 521.25 91.8594C519.75 90.5469 517.703 89.8906 515.109 89.8906C512.609 89.8906 510.562 90.4531 508.969 91.5781C507.406 92.7031 506.453 94.2188 506.109 96.125H493.594C493.844 91.1875 495.953 87.2188 499.922 84.2188C503.891 81.1875 509.156 79.6719 515.719 79.6719C522.156 79.6719 527.312 81.2031 531.188 84.2656C535.062 87.3281 537 91.3906 537 96.4531V131H523.781V123.312H523.5C522.125 125.938 520.031 128.016 517.219 129.547C514.406 131.047 511.391 131.797 508.172 131.797ZM545.859 131V80.75H559.078V89.7031H559.359C560.734 86.5156 562.734 84.0781 565.359 82.3906C568.016 80.6719 571.25 79.8125 575.062 79.8125C580.625 79.8125 584.922 81.4688 587.953 84.7812C590.984 88.0938 592.5 92.7031 592.5 98.6094V131H578.812V101.469C578.812 98.1562 578.031 95.6094 576.469 93.8281C574.906 92.0469 572.609 91.1562 569.578 91.1562C566.547 91.1562 564.109 92.1719 562.266 94.2031C560.453 96.2344 559.547 98.8906 559.547 102.172V131H545.859ZM601.406 131V80.75H615.094V131H601.406ZM613.453 73.1562C612.047 74.5312 610.312 75.2188 608.25 75.2188C606.188 75.2188 604.453 74.5312 603.047 73.1562C601.641 71.7812 600.938 70.1094 600.938 68.1406C600.938 66.1406 601.641 64.4688 603.047 63.125C604.453 61.75 606.188 61.0625 608.25 61.0625C610.312 61.0625 612.047 61.75 613.453 63.125C614.859 64.4688 615.562 66.1406 615.562 68.1406C615.562 70.1094 614.859 71.7812 613.453 73.1562ZM627.891 69.1719H641.578V80.75H650.859V91.0625H641.578V115.109C641.578 118.891 643.547 120.781 647.484 120.781C648.766 120.781 649.875 120.703 650.812 120.547V130.625C649.219 131 647.047 131.188 644.297 131.188C638.391 131.188 634.172 130.125 631.641 128C629.141 125.875 627.891 122.359 627.891 117.453V91.0625H620.812V80.75H627.891V69.1719ZM664.781 149.609C661.781 149.609 660.062 149.562 659.625 149.469V138.922C659.906 138.984 661.047 139.016 663.047 139.016C665.578 139.016 667.5 138.578 668.812 137.703C670.125 136.859 671.016 135.438 671.484 133.438C671.484 133.406 671.562 133.016 671.719 132.266C671.875 131.516 671.938 131.109 671.906 131.047L654.422 80.75H669.469L680.156 120.031H680.391L691.078 80.75H705.516L688.219 132.125C686.062 138.562 683.219 143.078 679.688 145.672C676.188 148.297 671.219 149.609 664.781 149.609ZM19.7812 246H5.625V178.359H49.9219V190.031H19.7812V208.172H47.2969V219.375H19.7812V246ZM96.9844 240.141C92.5156 244.766 86.4531 247.078 78.7969 247.078C71.1406 247.078 65.0781 244.75 60.6094 240.094C56.1406 235.438 53.9062 229.016 53.9062 220.828C53.9062 212.734 56.1562 206.359 60.6562 201.703C65.1875 197.016 71.2344 194.672 78.7969 194.672C86.3906 194.672 92.4375 197.016 96.9375 201.703C101.438 206.359 103.688 212.734 103.688 220.828C103.688 229.047 101.453 235.484 96.9844 240.141ZM78.7969 236.625C82.1719 236.625 84.8438 235.25 86.8125 232.5C88.7812 229.75 89.7656 225.875 89.7656 220.875C89.7656 215.938 88.7812 212.078 86.8125 209.297C84.8438 206.516 82.1719 205.125 78.7969 205.125C75.4219 205.125 72.7344 206.516 70.7344 209.297C68.7656 212.078 67.7812 215.938 67.7812 220.875C67.7812 225.875 68.7656 229.75 70.7344 232.5C72.7031 235.25 75.3906 236.625 78.7969 236.625ZM110.766 246V195.75H123.984V204.797H124.266C125.141 201.609 126.609 199.172 128.672 197.484C130.734 195.797 133.25 194.953 136.219 194.953C137.656 194.953 138.953 195.125 140.109 195.469V207.516C138.828 206.984 137.172 206.719 135.141 206.719C131.766 206.719 129.141 207.703 127.266 209.672C125.391 211.641 124.453 214.391 124.453 217.922V246H110.766ZM216.234 195.75L202.922 246H188.344L179.25 210.469H178.969L169.922 246H155.531L142.172 195.75H155.953L163.547 233.016H163.828L172.734 195.75H185.859L194.812 233.016H195.094L202.734 195.75H216.234ZM240.234 236.906C243.266 236.906 245.828 236.031 247.922 234.281C250.047 232.5 251.109 230.266 251.109 227.578V223.922L240.516 224.578C237.953 224.766 235.969 225.406 234.562 226.5C233.188 227.594 232.5 229.031 232.5 230.812C232.5 232.688 233.203 234.172 234.609 235.266C236.016 236.359 237.891 236.906 240.234 236.906ZM235.734 246.797C230.891 246.797 226.875 245.375 223.688 242.531C220.5 239.688 218.906 236.031 218.906 231.562C218.906 227 220.594 223.422 223.969 220.828C227.344 218.234 232.172 216.75 238.453 216.375L251.109 215.625V212.297C251.109 209.984 250.344 208.172 248.812 206.859C247.312 205.547 245.266 204.891 242.672 204.891C240.172 204.891 238.125 205.453 236.531 206.578C234.969 207.703 234.016 209.219 233.672 211.125H221.156C221.406 206.188 223.516 202.219 227.484 199.219C231.453 196.188 236.719 194.672 243.281 194.672C249.719 194.672 254.875 196.203 258.75 199.266C262.625 202.328 264.562 206.391 264.562 211.453V246H251.344V238.312H251.062C249.688 240.938 247.594 243.016 244.781 244.547C241.969 246.047 238.953 246.797 235.734 246.797ZM273.422 246V195.75H286.641V204.797H286.922C287.797 201.609 289.266 199.172 291.328 197.484C293.391 195.797 295.906 194.953 298.875 194.953C300.312 194.953 301.609 195.125 302.766 195.469V207.516C301.484 206.984 299.828 206.719 297.797 206.719C294.422 206.719 291.797 207.703 289.922 209.672C288.047 211.641 287.109 214.391 287.109 217.922V246H273.422ZM325.359 246.797C319.078 246.797 314.094 244.469 310.406 239.812C306.719 235.156 304.875 228.812 304.875 220.781C304.875 212.812 306.719 206.516 310.406 201.891C314.125 197.266 319.141 194.953 325.453 194.953C329.016 194.953 332.141 195.812 334.828 197.531C337.547 199.25 339.531 201.531 340.781 204.375H341.062V178.359H354.75V246H341.25V237.375H341.016C339.766 240.219 337.75 242.5 334.969 244.219C332.188 245.938 328.984 246.797 325.359 246.797ZM330 205.922C326.562 205.922 323.844 207.266 321.844 209.953C319.875 212.641 318.891 216.281 318.891 220.875C318.891 225.5 319.875 229.141 321.844 231.797C323.844 234.453 326.562 235.781 330 235.781C333.406 235.781 336.109 234.453 338.109 231.797C340.141 229.109 341.156 225.469 341.156 220.875C341.156 216.312 340.141 212.688 338.109 210C336.109 207.281 333.406 205.922 330 205.922Z" fill="white"/>
<rect width="100" height="8" fill="white"/>
<path d="M393 219H1058.5" stroke="black" stroke-width="2"/>
</svg>
