<svg width="1199" height="269" viewBox="0 0 1199 269" fill="none" xmlns="http://www.w3.org/2000/svg">
<path d="M6.5625 63.3594H29.2969C39.3281 63.3594 47.1562 66.3438 52.7812 72.3125C58.4062 78.25 61.2188 86.5312 61.2188 97.1562C61.2188 107.812 58.4062 116.125 52.7812 122.094C47.1875 128.031 39.3594 131 29.2969 131H6.5625V63.3594ZM15 70.9531V123.406H28.7344C36.3906 123.406 42.2812 121.156 46.4062 116.656C50.5312 112.125 52.5938 105.656 52.5938 97.25C52.5938 88.7812 50.5312 82.2812 46.4062 77.75C42.3125 73.2188 36.4219 70.9531 28.7344 70.9531H15ZM90 88.4844C86.2188 88.4844 83.0781 89.7969 80.5781 92.4219C78.1094 95.0156 76.75 98.3594 76.5 102.453H102.984C102.891 98.3281 101.656 94.9688 99.2812 92.375C96.9062 89.7812 93.8125 88.4844 90 88.4844ZM102.797 117.031H110.812C110.094 121.344 107.844 124.891 104.062 127.672C100.312 130.453 95.7969 131.844 90.5156 131.844C83.5469 131.844 78.0625 129.594 74.0625 125.094C70.0625 120.594 68.0625 114.5 68.0625 106.812C68.0625 99.1875 70.0625 93.0469 74.0625 88.3906C78.0938 83.7344 83.4531 81.4062 90.1406 81.4062C96.7031 81.4062 101.891 83.6094 105.703 88.0156C109.516 92.4219 111.422 98.3281 111.422 105.734V108.828H76.4531V109.297C76.4531 113.984 77.7344 117.734 80.2969 120.547C82.8594 123.359 86.3281 124.766 90.7031 124.766C93.7656 124.766 96.375 124.062 98.5312 122.656C100.688 121.25 102.109 119.375 102.797 117.031ZM160.172 98.2344H152.203C151.578 95.4219 150.188 93.1094 148.031 91.2969C145.906 89.4844 143.141 88.5781 139.734 88.5781C135.484 88.5781 132.062 90.2188 129.469 93.5C126.875 96.75 125.578 101.125 125.578 106.625C125.578 112.219 126.875 116.625 129.469 119.844C132.094 123.062 135.547 124.672 139.828 124.672C143.109 124.672 145.812 123.859 147.938 122.234C150.094 120.578 151.531 118.266 152.25 115.297H160.266C159.641 120.172 157.438 124.156 153.656 127.25C149.906 130.312 145.281 131.844 139.781 131.844C132.969 131.844 127.516 129.594 123.422 125.094C119.328 120.562 117.281 114.406 117.281 106.625C117.281 98.9688 119.328 92.8594 123.422 88.2969C127.516 83.7031 132.938 81.4062 139.688 81.4062C145.5 81.4062 150.219 83.0469 153.844 86.3281C157.5 89.6094 159.609 93.5781 160.172 98.2344ZM187.969 131.844C181.156 131.844 175.688 129.578 171.562 125.047C167.438 120.484 165.375 114.344 165.375 106.625C165.375 98.9062 167.438 92.7812 171.562 88.25C175.688 83.6875 181.156 81.4062 187.969 81.4062C194.75 81.4062 200.203 83.6875 204.328 88.25C208.453 92.7812 210.516 98.9062 210.516 106.625C210.516 114.312 208.453 120.438 204.328 125C200.203 129.562 194.75 131.844 187.969 131.844ZM177.516 119.891C180.109 123.078 183.594 124.672 187.969 124.672C192.344 124.672 195.812 123.094 198.375 119.938C200.938 116.75 202.219 112.312 202.219 106.625C202.219 100.938 200.938 96.5156 198.375 93.3594C195.812 90.1719 192.344 88.5781 187.969 88.5781C183.594 88.5781 180.109 90.1719 177.516 93.3594C174.953 96.5469 173.672 100.969 173.672 106.625C173.672 112.281 174.953 116.703 177.516 119.891ZM237.234 131.844C230.984 131.844 225.938 129.547 222.094 124.953C218.281 120.359 216.375 114.25 216.375 106.625C216.375 99.0312 218.281 92.9375 222.094 88.3438C225.906 83.7188 230.891 81.4062 237.047 81.4062C240.484 81.4062 243.562 82.1875 246.281 83.75C249 85.3125 251.094 87.4531 252.562 90.1719H252.75V63.3594H260.906V131H253.125V122.75H252.984C251.391 125.594 249.234 127.828 246.516 129.453C243.797 131.047 240.703 131.844 237.234 131.844ZM238.781 88.5781C234.469 88.5781 231.047 90.2188 228.516 93.5C225.984 96.75 224.719 101.125 224.719 106.625C224.719 112.156 225.984 116.547 228.516 119.797C231.047 123.047 234.469 124.672 238.781 124.672C243 124.672 246.391 123.031 248.953 119.75C251.516 116.438 252.797 112.062 252.797 106.625C252.797 101.188 251.5 96.8281 248.906 93.5469C246.344 90.2344 242.969 88.5781 238.781 88.5781ZM272.344 131V82.25H280.5V131H272.344ZM276.422 74.0469C275.047 74.0469 273.859 73.5469 272.859 72.5469C271.859 71.5469 271.359 70.3594 271.359 68.9844C271.359 67.5781 271.859 66.3906 272.859 65.4219C273.859 64.4219 275.047 63.9219 276.422 63.9219C277.828 63.9219 279.031 64.4219 280.031 65.4219C281.031 66.3906 281.531 67.5781 281.531 68.9844C281.531 70.3594 281.031 71.5469 280.031 72.5469C279.031 73.5469 277.828 74.0469 276.422 74.0469ZM291.516 131V82.25H299.203V90.0312H299.391C300.797 87.3125 302.812 85.2031 305.438 83.7031C308.062 82.1719 311.203 81.4062 314.859 81.4062C320.172 81.4062 324.312 83.0156 327.281 86.2344C330.25 89.4219 331.734 93.7969 331.734 99.3594V131H323.578V100.812C323.578 96.8438 322.641 93.8281 320.766 91.7656C318.891 89.6719 316.094 88.625 312.375 88.625C308.531 88.625 305.453 89.875 303.141 92.375C300.828 94.875 299.672 98.1875 299.672 102.312V131H291.516ZM361.969 124.203C366.219 124.203 369.641 122.578 372.234 119.328C374.828 116.078 376.125 111.781 376.125 106.438C376.125 101.062 374.828 96.75 372.234 93.5C369.641 90.2188 366.219 88.5781 361.969 88.5781C357.75 88.5781 354.375 90.2031 351.844 93.4531C349.344 96.6719 348.094 101 348.094 106.438C348.094 111.875 349.344 116.203 351.844 119.422C354.375 122.609 357.75 124.203 361.969 124.203ZM362.25 149.375C356.906 149.375 352.312 148.016 348.469 145.297C344.625 142.609 342.359 139.188 341.672 135.031H350.062C350.875 137.281 352.406 139.078 354.656 140.422C356.906 141.766 359.547 142.438 362.578 142.438C366.766 142.438 370.062 141.328 372.469 139.109C374.906 136.891 376.125 133.953 376.125 130.297V122.609H375.938C374.406 125.297 372.266 127.438 369.516 129.031C366.766 130.594 363.703 131.375 360.328 131.375C354.109 131.375 349.125 129.109 345.375 124.578C341.625 120.047 339.75 114 339.75 106.438C339.75 98.8125 341.625 92.7344 345.375 88.2031C349.156 83.6719 354.203 81.4062 360.516 81.4062C363.953 81.4062 367.047 82.2031 369.797 83.7969C372.547 85.3906 374.734 87.6094 376.359 90.4531H376.5V82.25H384.281V130.016C384.281 135.859 382.281 140.547 378.281 144.078C374.281 147.609 368.938 149.375 362.25 149.375Z" fill="black"/>
<path d="M428.484 131H414.938V63.3594H426.75L458.344 107.422H458.719V63.3594H472.266V131H460.547L428.906 86.7031H428.484V131ZM500.672 121.906C503.703 121.906 506.266 121.031 508.359 119.281C510.484 117.5 511.547 115.266 511.547 112.578V108.922L500.953 109.578C498.391 109.766 496.406 110.406 495 111.5C493.625 112.594 492.938 114.031 492.938 115.812C492.938 117.688 493.641 119.172 495.047 120.266C496.453 121.359 498.328 121.906 500.672 121.906ZM496.172 131.797C491.328 131.797 487.312 130.375 484.125 127.531C480.938 124.688 479.344 121.031 479.344 116.562C479.344 112 481.031 108.422 484.406 105.828C487.781 103.234 492.609 101.75 498.891 101.375L511.547 100.625V97.2969C511.547 94.9844 510.781 93.1719 509.25 91.8594C507.75 90.5469 505.703 89.8906 503.109 89.8906C500.609 89.8906 498.562 90.4531 496.969 91.5781C495.406 92.7031 494.453 94.2188 494.109 96.125H481.594C481.844 91.1875 483.953 87.2188 487.922 84.2188C491.891 81.1875 497.156 79.6719 503.719 79.6719C510.156 79.6719 515.312 81.2031 519.188 84.2656C523.062 87.3281 525 91.3906 525 96.4531V131H511.781V123.312H511.5C510.125 125.938 508.031 128.016 505.219 129.547C502.406 131.047 499.391 131.797 496.172 131.797ZM537.516 69.1719H551.203V80.75H560.484V91.0625H551.203V115.109C551.203 118.891 553.172 120.781 557.109 120.781C558.391 120.781 559.5 120.703 560.438 120.547V130.625C558.844 131 556.672 131.188 553.922 131.188C548.016 131.188 543.797 130.125 541.266 128C538.766 125.875 537.516 122.359 537.516 117.453V91.0625H530.438V80.75H537.516V69.1719ZM614.391 80.75V131H601.172V121.953H600.891C598.266 128.609 593.25 131.938 585.844 131.938C580.344 131.938 575.953 130.266 572.672 126.922C569.391 123.547 567.75 118.953 567.75 113.141V80.75H581.438V110.281C581.438 113.625 582.234 116.172 583.828 117.922C585.453 119.672 587.781 120.547 590.812 120.547C593.844 120.547 596.25 119.547 598.031 117.547C599.812 115.547 600.703 112.875 600.703 109.531V80.75H614.391ZM623.297 131V80.75H636.516V89.7969H636.797C637.672 86.6094 639.141 84.1719 641.203 82.4844C643.266 80.7969 645.781 79.9531 648.75 79.9531C650.188 79.9531 651.484 80.125 652.641 80.4688V92.5156C651.359 91.9844 649.703 91.7188 647.672 91.7188C644.297 91.7188 641.672 92.7031 639.797 94.6719C637.922 96.6406 636.984 99.3906 636.984 102.922V131H623.297ZM679.125 89.7969C676.156 89.7969 673.672 90.8125 671.672 92.8438C669.703 94.875 668.594 97.4688 668.344 100.625H689.672C689.516 97.4062 688.469 94.7969 686.531 92.7969C684.625 90.7969 682.156 89.7969 679.125 89.7969ZM689.859 115.625H702.422C701.672 120.562 699.203 124.547 695.016 127.578C690.859 130.578 685.688 132.078 679.5 132.078C671.781 132.078 665.719 129.766 661.312 125.141C656.938 120.516 654.75 114.172 654.75 106.109C654.75 98.0781 656.938 91.6719 661.312 86.8906C665.688 82.0781 671.578 79.6719 678.984 79.6719C686.266 79.6719 692.062 81.9531 696.375 86.5156C700.688 91.0781 702.844 97.1875 702.844 104.844V109.016H668.203V109.859C668.203 113.453 669.25 116.375 671.344 118.625C673.469 120.844 676.266 121.953 679.734 121.953C682.234 121.953 684.391 121.391 686.203 120.266C688.016 119.109 689.234 117.562 689.859 115.625ZM718.734 89.75H708.516L712.031 63.3594H725.016L718.734 89.75ZM727.922 95.5156C727.922 90.7344 729.844 86.9062 733.688 84.0312C737.531 81.125 742.672 79.6719 749.109 79.6719C755.391 79.6719 760.438 81.1406 764.25 84.0781C768.062 87.0156 770.016 90.9219 770.109 95.7969H757.5C757.344 93.7656 756.5 92.1719 754.969 91.0156C753.469 89.8594 751.453 89.2812 748.922 89.2812C746.547 89.2812 744.641 89.7812 743.203 90.7812C741.797 91.75 741.094 93.0469 741.094 94.6719C741.094 97.1094 743.281 98.8438 747.656 99.875L757.266 101.938C762.297 103.062 765.906 104.703 768.094 106.859C770.312 108.984 771.422 111.922 771.422 115.672C771.422 120.609 769.359 124.578 765.234 127.578C761.109 130.578 755.719 132.078 749.062 132.078C742.438 132.078 737.141 130.609 733.172 127.672C729.203 124.734 727.031 120.781 726.656 115.812H740.016C740.359 117.938 741.328 119.578 742.922 120.734C744.547 121.891 746.719 122.469 749.438 122.469C752.031 122.469 754.062 122 755.531 121.062C757.031 120.094 757.781 118.781 757.781 117.125C757.781 115.844 757.312 114.828 756.375 114.078C755.438 113.297 753.844 112.641 751.594 112.109L742.312 110.047C732.719 107.859 727.922 103.016 727.922 95.5156ZM19.7812 246H5.625V178.359H19.7812V246ZM29.8594 246V195.75H43.0781V204.703H43.3594C44.7344 201.516 46.7344 199.078 49.3594 197.391C52.0156 195.672 55.25 194.812 59.0625 194.812C64.625 194.812 68.9219 196.469 71.9531 199.781C74.9844 203.094 76.5 207.703 76.5 213.609V246H62.8125V216.469C62.8125 213.156 62.0312 210.609 60.4688 208.828C58.9062 207.047 56.6094 206.156 53.5781 206.156C50.5469 206.156 48.1094 207.172 46.2656 209.203C44.4531 211.234 43.5469 213.891 43.5469 217.172V246H29.8594ZM88.8281 184.172H102.516V195.75H111.797V206.062H102.516V230.109C102.516 233.891 104.484 235.781 108.422 235.781C109.703 235.781 110.812 235.703 111.75 235.547V245.625C110.156 246 107.984 246.188 105.234 246.188C99.3281 246.188 95.1094 245.125 92.5781 243C90.0781 240.875 88.8281 237.359 88.8281 232.453V206.062H81.75V195.75H88.8281V184.172ZM141.094 204.797C138.125 204.797 135.641 205.812 133.641 207.844C131.672 209.875 130.562 212.469 130.312 215.625H151.641C151.484 212.406 150.438 209.797 148.5 207.797C146.594 205.797 144.125 204.797 141.094 204.797ZM151.828 230.625H164.391C163.641 235.562 161.172 239.547 156.984 242.578C152.828 245.578 147.656 247.078 141.469 247.078C133.75 247.078 127.688 244.766 123.281 240.141C118.906 235.516 116.719 229.172 116.719 221.109C116.719 213.078 118.906 206.672 123.281 201.891C127.656 197.078 133.547 194.672 140.953 194.672C148.234 194.672 154.031 196.953 158.344 201.516C162.656 206.078 164.812 212.188 164.812 219.844V224.016H130.172V224.859C130.172 228.453 131.219 231.375 133.312 233.625C135.438 235.844 138.234 236.953 141.703 236.953C144.203 236.953 146.359 236.391 148.172 235.266C149.984 234.109 151.203 232.562 151.828 230.625ZM172.219 246V178.359H185.906V246H172.219ZM195.469 246V178.359H209.156V246H195.469ZM218.625 246V195.75H232.312V246H218.625ZM230.672 188.156C229.266 189.531 227.531 190.219 225.469 190.219C223.406 190.219 221.672 189.531 220.266 188.156C218.859 186.781 218.156 185.109 218.156 183.141C218.156 181.141 218.859 179.469 220.266 178.125C221.672 176.75 223.406 176.062 225.469 176.062C227.531 176.062 229.266 176.75 230.672 178.125C232.078 179.469 232.781 181.141 232.781 183.141C232.781 185.109 232.078 186.781 230.672 188.156ZM264.656 235.312C268.094 235.312 270.812 234.031 272.812 231.469C274.844 228.875 275.859 225.312 275.859 220.781C275.859 216.25 274.844 212.641 272.812 209.953C270.781 207.266 268.062 205.922 264.656 205.922C261.281 205.922 258.594 207.266 256.594 209.953C254.625 212.609 253.641 216.219 253.641 220.781C253.641 225.344 254.625 228.906 256.594 231.469C258.562 234.031 261.25 235.312 264.656 235.312ZM264.422 264.938C257.891 264.938 252.516 263.5 248.297 260.625C244.109 257.781 241.734 254.094 241.172 249.562H254.578C255.109 251.312 256.297 252.719 258.141 253.781C260.016 254.875 262.234 255.422 264.797 255.422C268.266 255.422 270.969 254.531 272.906 252.75C274.844 251 275.812 248.641 275.812 245.672V236.859H275.531C274.344 239.578 272.359 241.766 269.578 243.422C266.797 245.047 263.609 245.859 260.016 245.859C253.828 245.859 248.875 243.609 245.156 239.109C241.469 234.609 239.625 228.469 239.625 220.688C239.625 212.719 241.469 206.438 245.156 201.844C248.844 197.25 253.875 194.953 260.25 194.953C263.812 194.953 266.953 195.812 269.672 197.531C272.391 199.25 274.422 201.578 275.766 204.516H276V195.75H289.5V245.297C289.5 251.266 287.203 256.031 282.609 259.594C278.047 263.156 271.984 264.938 264.422 264.938ZM321 204.797C318.031 204.797 315.547 205.812 313.547 207.844C311.578 209.875 310.469 212.469 310.219 215.625H331.547C331.391 212.406 330.344 209.797 328.406 207.797C326.5 205.797 324.031 204.797 321 204.797ZM331.734 230.625H344.297C343.547 235.562 341.078 239.547 336.891 242.578C332.734 245.578 327.562 247.078 321.375 247.078C313.656 247.078 307.594 244.766 303.188 240.141C298.812 235.516 296.625 229.172 296.625 221.109C296.625 213.078 298.812 206.672 303.188 201.891C307.562 197.078 313.453 194.672 320.859 194.672C328.141 194.672 333.938 196.953 338.25 201.516C342.562 206.078 344.719 212.188 344.719 219.844V224.016H310.078V224.859C310.078 228.453 311.125 231.375 313.219 233.625C315.344 235.844 318.141 236.953 321.609 236.953C324.109 236.953 326.266 236.391 328.078 235.266C329.891 234.109 331.109 232.562 331.734 230.625ZM351.797 246V195.75H365.016V204.703H365.297C366.672 201.516 368.672 199.078 371.297 197.391C373.953 195.672 377.188 194.812 381 194.812C386.562 194.812 390.859 196.469 393.891 199.781C396.922 203.094 398.438 207.703 398.438 213.609V246H384.75V216.469C384.75 213.156 383.969 210.609 382.406 208.828C380.844 207.047 378.547 206.156 375.516 206.156C372.484 206.156 370.047 207.172 368.203 209.203C366.391 211.234 365.484 213.891 365.484 217.172V246H351.797ZM452.766 214.453H440.062C439.656 211.734 438.578 209.547 436.828 207.891C435.109 206.234 432.875 205.406 430.125 205.406C426.719 205.406 424.031 206.781 422.062 209.531C420.125 212.25 419.156 216.016 419.156 220.828C419.156 225.734 420.125 229.547 422.062 232.266C424.031 234.984 426.734 236.344 430.172 236.344C432.891 236.344 435.109 235.578 436.828 234.047C438.547 232.484 439.625 230.328 440.062 227.578H452.812C452.469 233.516 450.234 238.25 446.109 241.781C441.984 245.312 436.625 247.078 430.031 247.078C422.406 247.078 416.375 244.75 411.938 240.094C407.5 235.406 405.281 228.984 405.281 220.828C405.281 212.797 407.5 206.438 411.938 201.75C416.406 197.031 422.406 194.672 429.938 194.672C436.625 194.672 442.016 196.516 446.109 200.203C450.234 203.891 452.453 208.641 452.766 214.453ZM481.969 204.797C479 204.797 476.516 205.812 474.516 207.844C472.547 209.875 471.438 212.469 471.188 215.625H492.516C492.359 212.406 491.312 209.797 489.375 207.797C487.469 205.797 485 204.797 481.969 204.797ZM492.703 230.625H505.266C504.516 235.562 502.047 239.547 497.859 242.578C493.703 245.578 488.531 247.078 482.344 247.078C474.625 247.078 468.562 244.766 464.156 240.141C459.781 235.516 457.594 229.172 457.594 221.109C457.594 213.078 459.781 206.672 464.156 201.891C468.531 197.078 474.422 194.672 481.828 194.672C489.109 194.672 494.906 196.953 499.219 201.516C503.531 206.078 505.688 212.188 505.688 219.844V224.016H471.047V224.859C471.047 228.453 472.094 231.375 474.188 233.625C476.312 235.844 479.109 236.953 482.578 236.953C485.078 236.953 487.234 236.391 489.047 235.266C490.859 234.109 492.078 232.562 492.703 230.625Z" fill="white"/>
<rect width="100" height="8" fill="white"/>
<path d="M533 219H1198.5" stroke="black" stroke-width="2"/>
</svg>
