<svg width="34" height="35" viewBox="0 0 34 35" fill="none" xmlns="http://www.w3.org/2000/svg">
<path d="M33.3333 1.75V5.25C33.3333 8.49891 32.0395 11.6147 29.7364 13.9121C27.4333 16.2094 24.3097 17.5 21.0526 17.5H19.2982V19.25H28.0702V31.5C28.0702 32.4283 27.7005 33.3185 27.0425 33.9749C26.3845 34.6313 25.492 35 24.5614 35H10.5263C9.59573 35 8.70326 34.6313 8.04524 33.9749C7.38722 33.3185 7.01754 32.4283 7.01754 31.5V19.25H15.7895V14C15.7895 10.7511 17.0833 7.63527 19.3864 5.33795C21.6895 3.04063 24.8131 1.75 28.0702 1.75H33.3333ZM6.14035 4.3037e-06C8.24557 -0.00169724 10.3204 0.501176 12.1901 1.46628C14.0598 2.43139 15.6697 3.83048 16.8842 5.54575C15.0305 7.97577 14.0293 10.9465 14.0351 14V15.75H13.1579C9.6682 15.75 6.32144 14.3672 3.85386 11.9058C1.38627 9.44436 0 6.10597 0 2.625V4.3037e-06H6.14035Z" fill="url(#paint0_linear_53_258)"/>
<defs>
<linearGradient id="paint0_linear_53_258" x1="16.6667" y1="0" x2="16.6667" y2="35" gradientUnits="userSpaceOnUse">
<stop stop-color="#EA714B"/>
<stop offset="1" stop-color="#4BC4EA"/>
</linearGradient>
</defs>
</svg>
