<svg width="40" height="40" viewBox="0 0 40 40" fill="none" xmlns="http://www.w3.org/2000/svg">
<path d="M6.88039e-05 18.6705C-0.0129688 13.877 1.82731 9.26318 5.13783 5.78938C8.44835 2.31558 12.974 0.249484 17.7729 0.0211541C22.5717 -0.207176 27.2739 1.41986 30.9007 4.56357C34.5275 7.70729 36.7995 12.1255 37.2437 16.8985C36.7055 16.7521 36.164 16.6181 35.6196 16.4967C32.741 15.8381 29.7692 15.6859 26.8381 16.047C25.6727 16.1934 24.5713 16.4195 23.534 16.7335C23.3962 16.4347 23.253 16.1385 23.1046 15.8448C22.9204 15.4838 22.7452 15.1183 22.5793 14.7486C22.3446 14.2164 22.0886 13.5246 22.1339 12.7903C22.1873 11.9388 22.6193 11.247 23.3153 10.7255C24.1607 10.0922 25.2247 8.64213 26.142 7.17605C26.5847 6.47628 26.9607 5.81907 27.2274 5.34013L27.2887 5.22838C24.7151 3.58003 21.7201 2.70618 18.6619 2.71131H18.5339C18.7765 3.19024 19.0432 3.7623 19.2832 4.39822C19.9339 6.11707 20.5206 8.63415 19.4725 10.8585C18.5099 12.9073 16.8485 13.4395 15.6058 13.7588L15.4271 13.804C14.2191 14.1153 13.7204 14.243 13.3577 14.7885C13.0217 15.2993 13.0831 15.9406 13.4644 17.1832L13.5524 17.4625C13.7044 17.9468 13.8857 18.5215 13.9791 19.0643C14.0964 19.7401 14.1284 20.5863 13.7017 21.4058C13.3382 22.138 12.7596 22.7423 12.043 23.1379C11.4873 23.4194 10.8892 23.6081 10.2723 23.6967L10.091 23.7286C9.13629 23.8962 8.65095 23.9814 8.18427 24.479C7.81893 24.8701 7.59226 25.5486 7.46159 26.5331C7.40825 26.9348 7.37358 27.3339 7.34158 27.7464L7.32292 27.9645C7.29381 28.4382 7.23233 28.9094 7.13891 29.3747L7.07224 29.6674C8.72195 31.4009 10.7405 32.743 12.9791 33.5947C12.4777 34.3397 12.0137 35.1113 11.5817 35.9042C8.15571 34.5018 5.22521 32.1144 3.16288 29.0456C1.10056 25.9768 -0.000387702 22.3653 6.88039e-05 18.6705ZM39.801 20.6395C39.6819 20.4463 39.5153 20.2867 39.3169 20.1758C39.1185 20.065 38.895 20.0066 38.6677 20.0062H38.6464C38.5416 19.9934 38.4375 19.9756 38.3343 19.953C38.0668 19.8896 37.801 19.8195 37.537 19.7428L37.2837 19.6736C36.5418 19.459 35.7939 19.2656 35.0409 19.0936C32.4607 18.5011 29.7965 18.3633 27.1687 18.6865C23.9633 19.0856 21.5126 20.1712 19.8406 21.7251C18.1605 23.2923 17.3338 25.2825 17.3338 27.3127C17.3338 27.7996 17.3712 28.2626 17.4352 28.6963C20.2352 26.259 23.6887 24.2874 27.5047 22.7628C27.6674 22.6978 27.8413 22.6654 28.0165 22.6675C28.1917 22.6695 28.3648 22.706 28.5259 22.7748C28.687 22.8436 28.8329 22.9434 28.9553 23.0685C29.0778 23.1936 29.1743 23.3415 29.2395 23.5038C29.3046 23.6661 29.3371 23.8396 29.335 24.0144C29.3329 24.1892 29.2963 24.3619 29.2274 24.5227C29.1584 24.6834 29.0584 24.829 28.933 24.9511C28.8077 25.0733 28.6594 25.1696 28.4968 25.2346C26.3714 26.0834 24.406 27.0626 22.6353 28.1668C18.2299 30.7317 15.4858 34.0258 13.4751 38.0382C13.3903 38.195 13.338 38.3672 13.3212 38.5446C13.3044 38.722 13.3235 38.9009 13.3774 39.0708C13.4312 39.2406 13.5187 39.398 13.6347 39.5335C13.7506 39.669 13.8927 39.7799 14.0524 39.8595C14.2121 39.9392 14.3862 39.9861 14.5644 39.9973C14.7426 40.0086 14.9213 39.984 15.0898 39.9251C15.2583 39.8661 15.4133 39.774 15.5454 39.6542C15.6776 39.5344 15.7842 39.3893 15.8591 39.2275C16.8832 37.1894 18.1072 35.3561 19.7206 33.7251C20.1489 34.504 20.671 35.2278 21.2753 35.8803C22.5126 37.2107 24.51 38.6315 27.3341 38.6315C29.0728 38.6315 30.5182 38.1898 31.7022 37.4182C32.8755 36.6572 33.7236 35.6222 34.3582 34.5366C35.3396 32.8603 35.9023 30.8648 36.3183 29.3854C36.425 29.0129 36.5183 28.675 36.609 28.3823C37.0703 26.8816 37.745 25.5353 38.369 24.4337C38.6837 23.8856 38.9797 23.404 39.2357 22.9943L39.2784 22.9251C39.4853 22.6021 39.6793 22.271 39.8597 21.9326C39.9611 21.7299 40.0089 21.5047 39.9986 21.2784C39.9884 21.0521 39.9204 20.8322 39.801 20.6395Z" fill="url(#paint0_linear_53_190)"/>
<defs>
<linearGradient id="paint0_linear_53_190" x1="20" y1="0" x2="20" y2="40" gradientUnits="userSpaceOnUse">
<stop stop-color="#EA714B"/>
<stop offset="1" stop-color="#4BC4EA"/>
</linearGradient>
</defs>
</svg>
