<svg width="40" height="40" viewBox="0 0 40 40" fill="none" xmlns="http://www.w3.org/2000/svg">
<path fill-rule="evenodd" clip-rule="evenodd" d="M32.8641 30C28.7741 19.786 24.0001 17.094 24.0001 12V6H25.0001C25.2653 6 25.5196 5.89464 25.7072 5.70711C25.8947 5.51957 26.0001 5.26522 26.0001 5V3C26.0001 2.73478 25.8947 2.48043 25.7072 2.29289C25.5196 2.10536 25.2653 2 25.0001 2H15.0001C14.7348 2 14.4805 2.10536 14.293 2.29289C14.1054 2.48043 14.0001 2.73478 14.0001 3V5C14.0001 5.26522 14.1054 5.51957 14.293 5.70711C14.4805 5.89464 14.7348 6 15.0001 6H16.0001V12C16.0001 17.094 11.2261 19.786 7.13606 30C5.83406 33.25 2.49006 38 20.0001 38C37.5101 38 34.1661 33.25 32.8641 30ZM29.6301 33.502C28.2261 33.922 25.4321 34.4 20.0001 34.4C14.5681 34.4 11.7741 33.922 10.3701 33.502C9.87206 33.354 9.67806 32.776 9.85406 32.246C10.2941 30.906 11.1241 28.59 12.6761 26.004C16.4681 19.686 20.4021 26.998 23.6761 26.998C26.9501 26.998 26.0521 23.876 27.3241 26.004C28.4946 27.9729 29.4412 30.0666 30.1461 32.246C30.3221 32.776 30.1281 33.352 29.6301 33.502Z" fill="url(#paint0_linear_53_259)"/>
<defs>
<linearGradient id="paint0_linear_53_259" x1="20.0001" y1="2" x2="20.0001" y2="38" gradientUnits="userSpaceOnUse">
<stop stop-color="#EA714B"/>
<stop offset="1" stop-color="#4BC4EA"/>
</linearGradient>
</defs>
</svg>
