<svg width="40" height="40" viewBox="0 0 40 40" fill="none" xmlns="http://www.w3.org/2000/svg">
<path d="M12.2575 8.42128e-05L4.05152 0.00404447C4.11134 0.479856 4.2363 1.07077 4.53053 1.63471C5.04333 2.61759 5.91727 3.49911 8.1273 3.49911C10.2894 3.49911 11.1929 2.61861 11.7344 1.63058C12.0407 1.07194 12.1838 0.476233 12.2574 0L12.2575 8.42128e-05ZM24.4614 8.42128e-05L16.2554 0.00404447C16.3153 0.479856 16.4402 1.07077 16.7345 1.63471C17.2473 2.61759 18.1212 3.49911 20.3313 3.49911C22.4934 3.49911 23.3969 2.61861 23.9384 1.63058C24.2447 1.07194 24.3878 0.476401 24.4614 0V8.42128e-05ZM35.9763 8.42128e-05L27.7703 0.00404447C27.8301 0.479856 27.9551 1.07077 28.2493 1.63471C28.4439 2.00764 28.6907 2.36583 29.0424 2.66689C29.0451 2.66941 29.0483 2.67169 29.051 2.67413C29.0841 2.70219 29.1182 2.72957 29.153 2.75671C29.1599 2.76176 29.1667 2.76715 29.1736 2.77238C29.209 2.79934 29.2454 2.82563 29.2829 2.85141L29.293 2.85849C29.3347 2.88697 29.3776 2.91478 29.4219 2.94174C29.427 2.94486 29.4325 2.94764 29.4376 2.95075C29.4755 2.9735 29.5143 2.99575 29.5541 3.01732C29.5648 3.02322 29.5757 3.02878 29.5866 3.03459C29.625 3.05481 29.6644 3.07453 29.7045 3.09357C29.713 3.09762 29.7211 3.10175 29.7297 3.10562C29.7794 3.12879 29.8303 3.15112 29.883 3.17244L29.8911 3.17581C29.9404 3.1957 29.9914 3.21457 30.0433 3.23285C30.0547 3.2369 30.0664 3.24077 30.078 3.24465C30.1205 3.25923 30.1639 3.27313 30.2082 3.28653C30.2242 3.29133 30.2398 3.2963 30.2562 3.30102C30.3133 3.31753 30.3719 3.33329 30.4323 3.34787C30.4354 3.34871 30.439 3.34938 30.4422 3.35023C30.519 3.36853 30.5963 3.38488 30.6739 3.39927C30.7216 3.4082 30.7703 3.41645 30.8199 3.42429C30.8376 3.42707 30.8549 3.43002 30.873 3.43272C30.9408 3.44266 31.0099 3.45184 31.0813 3.45968C31.0872 3.46027 31.0933 3.46069 31.0992 3.46137C31.1644 3.46827 31.2313 3.47417 31.2994 3.47923C31.3226 3.48091 31.3461 3.48226 31.3696 3.48378C31.4215 3.48715 31.4744 3.48968 31.528 3.49195C31.555 3.49313 31.5818 3.49448 31.6091 3.49515C31.6866 3.49751 31.7651 3.49911 31.8461 3.49911C32.0031 3.49883 32.1602 3.49371 32.3169 3.48378C32.3385 3.48235 32.3602 3.48091 32.3815 3.47931C32.4535 3.4739 32.5255 3.4673 32.5972 3.45951C32.5981 3.45934 32.5988 3.45951 32.5996 3.45934C32.6698 3.45151 32.7378 3.44215 32.8047 3.43213C32.8207 3.42977 32.8367 3.42707 32.8526 3.42454C32.9043 3.41628 32.9559 3.40723 33.0074 3.39741C33.0238 3.39429 33.0403 3.39135 33.0566 3.38814C33.1191 3.3755 33.1807 3.36202 33.2403 3.34736C33.2409 3.34736 33.2415 3.34703 33.242 3.34694C33.303 3.33177 33.3619 3.31577 33.4198 3.29875C33.4323 3.29512 33.4444 3.29133 33.4567 3.28754C33.5039 3.27321 33.55 3.25822 33.5953 3.24263C33.6063 3.23884 33.6175 3.23521 33.6285 3.23125C33.7357 3.19341 33.841 3.15039 33.944 3.10234C33.951 3.09922 33.9578 3.09585 33.9646 3.09256C34.0069 3.07253 34.0488 3.05154 34.0901 3.02962C34.0982 3.02541 34.1063 3.0212 34.1143 3.01681C34.2059 2.96748 34.2949 2.91357 34.3811 2.85529L34.3957 2.84518C34.4334 2.81923 34.4702 2.79277 34.5061 2.76572C34.5111 2.76176 34.5166 2.75789 34.5218 2.75393C34.9382 2.43543 35.2273 2.04253 35.453 1.63075C35.7593 1.07211 35.9024 0.47657 35.976 0.000168586L35.9763 8.42128e-05ZM11.0272 4.41611C10.5606 4.65852 10.0264 4.84684 9.42135 4.95873C9.41183 8.93998 9.38461 15.1238 9.3975 18.5285C9.4002 19.2107 8.82732 19.7787 8.08348 19.7796C7.33973 19.7804 6.77536 19.2189 6.7773 18.533V18.5324C6.78488 15.1557 6.80746 8.95413 6.80283 4.95503C6.20425 4.84321 5.67645 4.65776 5.21657 4.41931C5.21884 13.2123 5.17865 28.4348 5.16618 34.5453C5.16239 36.2853 6.477 37.641 8.07085 37.6388C9.66477 37.6363 10.9943 36.2725 10.9883 34.5366C10.9666 28.2403 11.0094 13.0593 11.0271 4.41611H11.0272ZM23.231 4.41611C22.7637 4.65894 22.2286 4.84734 21.6225 4.95916C21.6114 8.06748 21.5894 10.9885 21.6014 14.1454C21.604 14.8276 21.031 15.3956 20.287 15.3964C19.5433 15.3973 18.9789 14.8356 18.981 14.1497V14.1494C18.988 11.0068 19.0068 8.07219 19.0057 4.95503C18.4075 4.84313 17.8799 4.65776 17.4202 4.41939C17.4224 13.2123 17.3822 28.4349 17.3698 34.5454C17.366 36.2854 18.6808 37.6411 20.2746 37.6389C21.8684 37.6364 23.1981 36.2725 23.1921 34.5367C23.1703 28.2404 23.2131 13.0594 23.2308 4.41619L23.231 4.41611ZM34.7459 4.41611C34.2796 4.65843 33.7455 4.84667 33.1409 4.95857C33.1322 9.31898 33.103 18.9049 33.1162 22.4125C33.1186 23.0947 32.5458 23.6627 31.802 23.6636C31.0583 23.6644 30.494 23.1028 30.4958 22.4168V22.4166C30.5037 18.9372 30.5284 9.36136 30.5218 4.95528C29.923 4.84355 29.395 4.65801 28.935 4.41939C28.9373 13.2124 28.8971 28.4351 28.8846 34.5456C28.8808 36.2854 30.1957 37.6411 31.7895 37.639C33.3833 37.6364 34.7129 36.2726 34.7069 34.5368C34.6852 28.2405 34.728 13.0595 34.7457 4.41627L34.7459 4.41611ZM0 6.45534V10.8162H3.63806C3.63999 9.31004 3.6421 7.80096 3.64269 6.45543H0V6.45534ZM12.5973 6.45534C12.5943 7.84394 12.5917 9.21854 12.5881 10.8162H15.8418C15.8437 9.31004 15.8459 7.80096 15.8464 6.45543H12.5974L12.5973 6.45534ZM24.8011 6.45534C24.7981 7.84394 24.7954 9.21854 24.7918 10.8162H27.3567C27.3586 9.31004 27.3607 7.80096 27.3613 6.45543H24.8011V6.45534ZM36.3159 6.45534C36.3129 7.84394 36.3103 9.21854 36.3067 10.8162H40V6.45534H36.316H36.3159ZM0 35.545V39.9058H40V35.545H36.1758C35.734 37.6245 33.9424 39.2102 31.7916 39.2136H31.7915C29.6373 39.2165 27.8524 37.6267 27.4142 35.545H24.661C24.2191 37.6245 22.4276 39.2102 20.2768 39.2136H20.2766C18.1225 39.2165 16.3375 37.6267 15.8994 35.545H12.4574C12.0154 37.6245 10.2238 39.2102 8.07304 39.2136H8.07287C5.9187 39.2165 4.13375 37.6267 3.69561 35.545H0Z" fill="url(#paint0_linear_53_202)"/>
<defs>
<linearGradient id="paint0_linear_53_202" x1="20" y1="0" x2="20" y2="39.9058" gradientUnits="userSpaceOnUse">
<stop stop-color="#EA714B"/>
<stop offset="1" stop-color="#4BC4EA"/>
</linearGradient>
</defs>
</svg>
