<svg width="29" height="45" viewBox="0 0 29 45" fill="none" xmlns="http://www.w3.org/2000/svg">
<path fill-rule="evenodd" clip-rule="evenodd" d="M1.1249 0C0.826555 0 0.540434 0.118516 0.329475 0.329475C0.118516 0.540434 0 0.826555 0 1.1249V4.49959C0 4.79793 0.118516 5.08405 0.329475 5.29501C0.540434 5.50597 0.826555 5.62448 1.1249 5.62448H2.24979V8.18137C1.92067 8.29773 1.63574 8.51331 1.43427 8.79839C1.23281 9.08347 1.12471 9.42401 1.1249 9.7731V39.3714C1.12393 40.69 1.5863 41.9671 2.43124 42.9795C3.27618 43.9918 4.44995 44.6752 5.74751 44.91C7.04507 45.1449 8.38391 44.9164 9.53012 44.2645C10.6763 43.6126 11.557 42.5786 12.0184 41.3433C10.7223 40.2895 9.67772 38.9597 8.96079 37.451C8.24387 35.9422 7.87267 34.2924 7.87427 32.622C7.87296 30.8754 8.27898 29.1526 9.06007 27.5904C9.84117 26.0282 10.9758 24.6697 12.3739 23.6228V9.77085C12.3738 9.42196 12.2656 9.08166 12.0642 8.7968C11.8627 8.51195 11.5779 8.29654 11.249 8.18025V5.62448H12.3739C12.6722 5.62448 12.9583 5.50597 13.1693 5.29501C13.3802 5.08405 13.4988 4.79793 13.4988 4.49959V1.1249C13.4988 0.826555 13.3802 0.540434 13.1693 0.329475C12.9583 0.118516 12.6722 0 12.3739 0H1.1249ZM4.49958 8.6482V5.62448H8.99917V8.6482C8.99922 8.99709 9.10742 9.33739 9.30887 9.62225C9.51032 9.9071 9.79513 10.1225 10.1241 10.2388V15.7485H3.37469V10.2388C3.70381 10.1224 3.98874 9.90687 4.19021 9.62179C4.39168 9.33671 4.49977 8.99616 4.49958 8.64708V8.6482ZM22.2246 37.3151C21.6246 37.7127 20.9535 37.9907 20.2481 38.134V39.3714C20.5465 39.3714 20.8326 39.4899 21.0436 39.7008C21.2545 39.9118 21.373 40.1979 21.373 40.4963C21.373 40.7946 21.2545 41.0807 21.0436 41.2917C20.8326 41.5027 20.5465 41.6212 20.2481 41.6212H17.9983C17.7 41.6212 17.4139 41.5027 17.2029 41.2917C16.992 41.0807 16.8734 40.7946 16.8734 40.4963C16.8734 40.1979 16.992 39.9118 17.2029 39.7008C17.4139 39.4899 17.7 39.3714 17.9983 39.3714V38.134C17.293 37.9907 16.6219 37.7127 16.0219 37.3151L15.0894 38.2465C15.2943 38.4586 15.4076 38.7428 15.4051 39.0377C15.4025 39.3327 15.2842 39.6148 15.0757 39.8234C14.8671 40.0319 14.585 40.1502 14.29 40.1528C13.9951 40.1554 13.7109 40.042 13.4988 39.8371L11.9082 38.2465C11.7032 38.0343 11.5899 37.7502 11.5924 37.4552C11.595 37.1603 11.7133 36.8781 11.9219 36.6696C12.1304 36.461 12.4126 36.3427 12.7075 36.3401C13.0024 36.3376 13.2866 36.451 13.4988 36.6559L14.4302 35.7233C14.0326 35.1233 13.7545 34.4523 13.6112 33.7469H12.3739C12.3739 34.0452 12.2553 34.3314 12.0444 34.5423C11.8334 34.7533 11.5473 34.8718 11.249 34.8718C10.9506 34.8718 10.6645 34.7533 10.4535 34.5423C10.2426 34.3314 10.1241 34.0452 10.1241 33.7469V31.4971C10.1241 31.1988 10.2426 30.9126 10.4535 30.7017C10.6645 30.4907 10.9506 30.3722 11.249 30.3722C11.5473 30.3722 11.8334 30.4907 12.0444 30.7017C12.2553 30.9126 12.3739 31.1988 12.3739 31.4971H13.6112C13.7575 30.7794 14.0387 30.1101 14.4302 29.5207L13.4988 28.5881C13.2866 28.793 13.0024 28.9064 12.7075 28.9038C12.4126 28.9013 12.1304 28.783 11.9219 28.5744C11.7133 28.3658 11.595 28.0837 11.5924 27.7888C11.5899 27.4938 11.7032 27.2097 11.9082 26.9975L12.6933 26.2123L12.7035 26.2011C12.7072 26.1977 12.7109 26.1943 12.7147 26.191L13.4988 25.4069C13.6025 25.2995 13.7267 25.2138 13.8639 25.1548C14.0011 25.0959 14.1487 25.0648 14.2981 25.0635C14.4475 25.0622 14.5956 25.0907 14.7338 25.1473C14.8721 25.2038 14.9977 25.2873 15.1033 25.393C15.2089 25.4986 15.2924 25.6242 15.349 25.7624C15.4056 25.9007 15.434 26.0488 15.4327 26.1982C15.4314 26.3475 15.4004 26.4951 15.3414 26.6324C15.2825 26.7696 15.1968 26.8937 15.0894 26.9975L16.0219 27.9289C16.6219 27.5313 17.293 27.2533 17.9983 27.11V25.8726C17.7 25.8726 17.4139 25.7541 17.2029 25.5431C16.992 25.3322 16.8734 25.0461 16.8734 24.7477C16.8734 24.4494 16.992 24.1633 17.2029 23.9523C17.4139 23.7413 17.7 23.6228 17.9983 23.6228H20.2481C20.5465 23.6228 20.8326 23.7413 21.0436 23.9523C21.2545 24.1633 21.373 24.4494 21.373 24.7477C21.373 25.0461 21.2545 25.3322 21.0436 25.5431C20.8326 25.7541 20.5465 25.8726 20.2481 25.8726V27.11C20.9658 27.2562 21.6351 27.5375 22.2246 27.9289L23.1571 26.9975C22.9522 26.7854 22.8388 26.5012 22.8414 26.2063C22.8439 25.9113 22.9623 25.6292 23.1708 25.4206C23.3794 25.212 23.6615 25.0937 23.9565 25.0912C24.2514 25.0886 24.5356 25.202 24.7477 25.4069L26.3383 26.9975C26.5432 27.2097 26.6566 27.4938 26.654 27.7888C26.6515 28.0837 26.5332 28.3658 26.3246 28.5744C26.1161 28.783 25.8339 28.9013 25.539 28.9038C25.244 28.9064 24.9599 28.793 24.7477 28.5881L23.8163 29.5207C24.2066 30.1101 24.489 30.7794 24.6352 31.4971H25.8726C25.8726 31.1988 25.9911 30.9126 26.2021 30.7017C26.413 30.4907 26.6992 30.3722 26.9975 30.3722C27.2959 30.3722 27.582 30.4907 27.7929 30.7017C28.0039 30.9126 28.1224 31.1988 28.1224 31.4971V33.7469C28.1224 34.0452 28.0039 34.3314 27.7929 34.5423C27.582 34.7533 27.2959 34.8718 26.9975 34.8718C26.6992 34.8718 26.413 34.7533 26.2021 34.5423C25.9911 34.3314 25.8726 34.0452 25.8726 33.7469H24.6352C24.492 34.4523 24.2139 35.1233 23.8163 35.7233L24.7477 36.6559C24.8515 36.5484 24.9756 36.4627 25.1129 36.4038C25.2501 36.3448 25.3977 36.3138 25.5471 36.3125C25.6964 36.3112 25.8446 36.3397 25.9828 36.3962C26.121 36.4528 26.2466 36.5363 26.3523 36.6419C26.4579 36.7475 26.5414 36.8731 26.598 37.0114C26.6545 37.1496 26.683 37.2978 26.6817 37.4471C26.6804 37.5965 26.6494 37.7441 26.5904 37.8813C26.5315 38.0186 26.4458 38.1427 26.3383 38.2465L24.7477 39.8371C24.5356 40.042 24.2514 40.1554 23.9565 40.1528C23.6615 40.1502 23.3794 40.0319 23.1708 39.8234C22.9623 39.6148 22.8439 39.3327 22.8414 39.0377C22.8388 38.7428 22.9522 38.4586 23.1571 38.2465L22.2246 37.3151Z" fill="url(#paint0_linear_53_217)"/>
<defs>
<linearGradient id="paint0_linear_53_217" x1="14.0612" y1="0" x2="14.0612" y2="45" gradientUnits="userSpaceOnUse">
<stop stop-color="#EA714B"/>
<stop offset="1" stop-color="#4BC4EA"/>
</linearGradient>
</defs>
</svg>
