<svg width="40" height="40" viewBox="0 0 40 40" fill="none" xmlns="http://www.w3.org/2000/svg">
<g clip-path="url(#clip0_53_193)">
<path fill-rule="evenodd" clip-rule="evenodd" d="M26.1367 5.46992C26.7267 4.88025 27.5164 4.53325 28.3499 4.49746C29.1833 4.46166 29.9999 4.73967 30.6383 5.27659L30.85 5.46992L32.0283 6.64992C32.6178 7.23969 32.9648 8.02895 33.0009 8.862C33.037 9.69505 32.7595 10.5114 32.2233 11.1499L32.03 11.3633L30.85 12.5416C30.7484 12.6429 30.6404 12.7375 30.5267 12.8249C30.6725 13.3477 30.6884 13.8982 30.5731 14.4286C30.4578 14.959 30.2147 15.4532 29.865 15.8683L29.6717 16.0766L28.0217 17.7266C29.1692 18.7422 30.0876 19.9902 30.716 21.3879C31.3445 22.7855 31.6685 24.3008 31.6667 25.8333C31.6667 28.5733 30.65 31.0749 28.9733 32.9833L28.65 33.3333H33.3333C33.7581 33.3337 34.1667 33.4964 34.4756 33.788C34.7845 34.0796 34.9704 34.4782 34.9953 34.9022C35.0202 35.3263 34.8822 35.7439 34.6095 36.0696C34.3369 36.3954 33.9501 36.6047 33.5283 36.6549L33.3333 36.6666H6.66665C6.24185 36.6661 5.83326 36.5035 5.52437 36.2118C5.21548 35.9202 5.02959 35.5217 5.0047 35.0976C4.9798 34.6735 5.11778 34.256 5.39043 33.9302C5.66308 33.6044 6.04982 33.3951 6.47165 33.3449L6.66665 33.3333H20.8333C22.338 33.3334 23.808 32.881 25.0521 32.0348C26.2963 31.1886 27.2572 29.9877 27.8099 28.5882C28.3626 27.1887 28.4816 25.6553 28.1514 24.1873C27.8212 22.7193 27.0571 21.3846 25.9583 20.3566L25.6583 20.0899L20.2433 25.5066C19.6533 26.0958 18.864 26.4425 18.0309 26.4783C17.1979 26.5141 16.3817 26.2364 15.7433 25.6999L15.53 25.5049L11.995 21.9699C11.4051 21.3801 11.0578 20.5905 11.0217 19.757C10.9856 18.9236 11.2633 18.1069 11.8 17.4683L11.995 17.2566L21.4233 7.82825C21.8408 7.41066 22.3617 7.11144 22.9327 6.96122C23.5037 6.81099 24.1044 6.81515 24.6733 6.97325L24.81 6.80659L24.9583 6.64992L26.1367 5.46992ZM10.8167 23.1499L14.35 26.6849C14.5093 26.8386 14.6364 27.0224 14.7239 27.2257C14.8113 27.4289 14.8575 27.6476 14.8596 27.8689C14.8616 28.0902 14.8196 28.3097 14.736 28.5146C14.6523 28.7194 14.5287 28.9056 14.3723 29.0622C14.2159 29.2188 14.0299 29.3427 13.8252 29.4266C13.6204 29.5106 13.401 29.5529 13.1797 29.5511C12.9584 29.5494 12.7396 29.5036 12.5362 29.4164C12.3328 29.3292 12.1488 29.2023 11.995 29.0433L8.45832 25.5066C8.30358 25.3517 8.18085 25.1679 8.09715 24.9656C8.01344 24.7634 7.9704 24.5466 7.97048 24.3277C7.97056 24.1088 8.01375 23.892 8.0976 23.6898C8.18145 23.4876 8.3043 23.3038 8.45915 23.1491C8.614 22.9943 8.79781 22.8716 9.00009 22.7879C9.20237 22.7042 9.41916 22.6612 9.63807 22.6612C9.85699 22.6613 10.0737 22.7045 10.276 22.7884C10.4782 22.8722 10.6619 22.9951 10.8167 23.1499ZM28.4933 7.82992L27.315 9.00825L28.4933 10.1866L29.6717 9.00825L28.4933 7.82992Z" fill="url(#paint0_linear_53_193)"/>
</g>
<defs>
<linearGradient id="paint0_linear_53_193" x1="20" y1="4.49438" x2="20" y2="36.6666" gradientUnits="userSpaceOnUse">
<stop stop-color="#EA714B"/>
<stop offset="1" stop-color="#4BC4EA"/>
</linearGradient>
<clipPath id="clip0_53_193">
<rect width="40" height="40" fill="white"/>
</clipPath>
</defs>
</svg>
