<svg width="44" height="44" viewBox="0 0 44 44" fill="none" xmlns="http://www.w3.org/2000/svg">
<mask id="mask0_53_210" style="mask-type:alpha" maskUnits="userSpaceOnUse" x="0" y="0" width="44" height="44">
<path d="M9.36816 9.36865L16.7366 16.7371M34.6313 34.6318L27.2629 27.2634M34.6313 9.36865L27.2629 16.7371M9.36816 34.6318L16.7366 27.2634" stroke="white" stroke-width="4" stroke-linecap="round" stroke-linejoin="round"/>
<path d="M16.7371 16.7368H27.2634V27.2631H16.7371V16.7368Z" fill="white" stroke="white" stroke-width="4" stroke-linecap="round" stroke-linejoin="round"/>
<path d="M34.6316 16.7368C36.0889 16.7368 37.5135 16.3047 38.7253 15.495C39.937 14.6854 40.8814 13.5346 41.4391 12.1882C41.9968 10.8418 42.1427 9.36025 41.8584 7.93092C41.5741 6.50158 40.8723 5.18866 39.8418 4.15816C38.8113 3.12767 37.4984 2.4259 36.0691 2.14159C34.6397 1.85727 33.1582 2.00319 31.8118 2.56089C30.4654 3.11859 29.3146 4.06302 28.505 5.27475C27.6953 6.48648 27.2632 7.91109 27.2632 9.36842M34.6316 27.2632C36.0889 27.2632 37.5135 27.6953 38.7253 28.505C39.937 29.3146 40.8814 30.4654 41.4391 31.8118C41.9968 33.1582 42.1427 34.6397 41.8584 36.0691C41.5741 37.4984 40.8723 38.8113 39.8418 39.8418C38.8113 40.8723 37.4984 41.5741 36.0691 41.8584C34.6397 42.1427 33.1582 41.9968 31.8118 41.4391C30.4654 40.8814 29.3146 39.937 28.505 38.7253C27.6953 37.5135 27.2632 36.0889 27.2632 34.6316M9.36842 27.2632C7.91109 27.2632 6.48648 27.6953 5.27475 28.505C4.06302 29.3146 3.11859 30.4654 2.56089 31.8118C2.00319 33.1582 1.85727 34.6397 2.14159 36.0691C2.4259 37.4984 3.12767 38.8113 4.15816 39.8418C5.18866 40.8723 6.50158 41.5741 7.93092 41.8584C9.36025 42.1427 10.8418 41.9968 12.1882 41.4391C13.5346 40.8814 14.6854 39.937 15.495 38.7253C16.3047 37.5135 16.7368 36.0889 16.7368 34.6316M9.36842 16.7368C7.91109 16.7368 6.48648 16.3047 5.27475 15.495C4.06302 14.6854 3.11859 13.5346 2.56089 12.1882C2.00319 10.8418 1.85727 9.36025 2.14159 7.93092C2.4259 6.50158 3.12767 5.18866 4.15816 4.15816C5.18866 3.12767 6.50158 2.4259 7.93092 2.14159C9.36025 1.85727 10.8418 2.00319 12.1882 2.56089C13.5346 3.11859 14.6854 4.06302 15.495 5.27475C16.3047 6.48648 16.7368 7.91109 16.7368 9.36842" stroke="white" stroke-width="4" stroke-linecap="round" stroke-linejoin="round"/>
</mask>
<g mask="url(#mask0_53_210)">
<path d="M-3.26343 -3.26294H47.2629V47.2634H-3.26343V-3.26294Z" fill="url(#paint0_linear_53_210)"/>
</g>
<defs>
<linearGradient id="paint0_linear_53_210" x1="21.9997" y1="-3.26294" x2="21.9997" y2="47.2634" gradientUnits="userSpaceOnUse">
<stop stop-color="#EA714B"/>
<stop offset="1" stop-color="#4BC4EA"/>
</linearGradient>
</defs>
</svg>
