<svg width="40" height="37" viewBox="0 0 40 37" fill="none" xmlns="http://www.w3.org/2000/svg">
<path d="M35 13.3332C34.7945 13.3409 34.5896 13.3615 34.3867 13.3948L31.9233 8.46985C32.4438 7.9349 32.8377 7.29001 33.0759 6.58267C33.3141 5.87533 33.3907 5.12356 33.2998 4.38273C33.209 3.6419 32.9531 2.93088 32.5511 2.30204C32.149 1.6732 31.611 1.14257 30.9767 0.749216C30.3424 0.355864 29.6279 0.109816 28.8859 0.029196C28.1439 -0.0514243 27.3933 0.0354361 26.6893 0.28338C25.9853 0.531324 25.3459 0.934034 24.8181 1.46185C24.2904 1.98967 23.8878 2.62914 23.64 3.33318H16.36C16.1118 2.63037 15.7093 1.99212 15.182 1.46533C14.6547 0.938533 14.0161 0.536595 13.3131 0.289055C12.61 0.0415144 11.8604 -0.0453356 11.1194 0.0348882C10.3784 0.115112 9.66481 0.360371 9.03104 0.752637C8.39727 1.1449 7.85946 1.6742 7.45714 2.30164C7.05482 2.92907 6.79821 3.63869 6.70618 4.37833C6.61416 5.11797 6.68904 5.86883 6.92534 6.57572C7.16164 7.28261 7.55335 7.92757 8.07167 8.46318L5.605 13.3948C5.40479 13.3619 5.20274 13.3413 5 13.3332C3.67392 13.3332 2.40215 13.86 1.46447 14.7976C0.526784 15.7353 0 17.0071 0 18.3332C0 19.6593 0.526784 20.931 1.46447 21.8687C2.40215 22.8064 3.67392 23.3332 5 23.3332C5.2033 23.3251 5.40591 23.3045 5.60667 23.2715L8.07167 28.2048C7.55165 28.7403 7.15838 29.3856 6.92081 30.0932C6.68325 30.8008 6.60746 31.5526 6.69901 32.2934C6.79056 33.0342 7.04712 33.745 7.44981 34.3734C7.85249 35.0019 8.39103 35.532 9.02576 35.9248C9.66049 36.3175 10.3752 36.5628 11.1174 36.6427C11.8595 36.7226 12.6101 36.6349 13.3138 36.3863C14.0176 36.1376 14.6566 35.7342 15.1838 35.2058C15.711 34.6774 16.1129 34.0375 16.36 33.3332H23.64C23.8878 34.036 24.2899 34.6743 24.8168 35.2013C25.3436 35.7283 25.9819 36.1306 26.6846 36.3785C27.3873 36.6265 28.1367 36.7139 28.8776 36.6342C29.6185 36.5546 30.3322 36.31 30.9662 35.9183C31.6002 35.5267 32.1383 34.9979 32.5412 34.371C32.944 33.7441 33.2012 33.0349 33.294 32.2955C33.3868 31.5561 33.3127 30.8053 33.0772 30.0983C32.8418 29.3913 32.4509 28.746 31.9333 28.2099L34.4017 23.2732C34.5997 23.3053 34.7995 23.3254 35 23.3332C36.3261 23.3332 37.5979 22.8064 38.5355 21.8687C39.4732 20.931 40 19.6593 40 18.3332C40 17.0071 39.4732 15.7353 38.5355 14.7976C37.5979 13.86 36.3261 13.3332 35 13.3332ZM28.9467 26.7282C28.7437 26.6948 28.5389 26.6742 28.3333 26.6665C27.3024 26.6686 26.2974 26.9903 25.4569 27.5873C24.6164 28.1842 23.9816 29.0271 23.64 29.9998H16.36C16.0184 29.0271 15.3836 28.1842 14.5431 27.5873C13.7026 26.9903 12.6976 26.6686 11.6667 26.6665C11.4634 26.6746 11.2608 26.6952 11.06 26.7282L8.595 21.7948C9.49537 20.8671 9.99896 19.6252 9.99896 18.3323C9.99896 17.0395 9.49537 15.7976 8.595 14.8698L11.0617 9.93818C11.2619 9.97114 11.4639 9.99174 11.6667 9.99985C12.6976 9.99776 13.7026 9.67608 14.5431 9.07911C15.3836 8.48213 16.0184 7.63924 16.36 6.66651H23.64C23.9767 7.76002 24.6985 8.69434 25.6715 9.29625C26.6446 9.89816 27.8029 10.1268 28.9317 9.93985L31.3983 14.8765C30.499 15.8058 29.9972 17.049 29.9994 18.3422C30.0016 19.6354 30.5076 20.8769 31.41 21.8032L28.9467 26.7282Z" fill="url(#paint0_linear_53_212)"/>
<defs>
<linearGradient id="paint0_linear_53_212" x1="20" y1="0" x2="20" y2="36.6714" gradientUnits="userSpaceOnUse">
<stop stop-color="#EA714B"/>
<stop offset="1" stop-color="#4BC4EA"/>
</linearGradient>
</defs>
</svg>
