<svg width="35" height="36" viewBox="0 0 35 36" fill="none" xmlns="http://www.w3.org/2000/svg">
<path d="M23.3022 0.000277436C22.9055 -0.00805735 22.4385 0.170654 21.9279 0.637889C18.7078 5.1045 20.2158 8.46127 21.9742 14.1884C23.8833 20.4065 22.2033 24.678 15.2673 22.6708L16.2343 25.7977C24.6355 27.0651 26.3174 20.9509 25.187 15.6663C23.6417 8.44175 21.4397 6.67672 24.5061 2.03959C24.8682 1.26487 24.3156 0.0216701 23.302 0.000346893L23.3022 0.000277436ZM26.102 3.16993C25.5428 3.502 25.347 3.95743 25.3275 4.96656C27.5851 6.86585 29.5043 9.55007 31.0142 11.4405C30.4555 11.7745 29.7562 12.0829 28.9893 11.9886C28.2742 10.982 26.3703 8.72069 24.9594 7.35524C25.0744 8.59469 25.4116 9.51638 25.514 10.59C27.7261 13.0828 27.8436 14.3528 27.8436 14.3528C30.6974 14.4982 33.1046 13.2484 34.7109 11.7963C35.5772 11.0498 34.3651 9.02609 32.819 10.4151C30.7303 7.8115 28.5692 5.2987 26.102 3.16993ZM16.7326 9.44811C12.2591 9.39692 9.06421 12.8234 9.28503 17.2778C9.63448 21.1772 11.3886 23.7312 11.6698 26.8811L9.74901 24.7033C8.99785 24.6207 8.33942 24.5175 7.52876 24.9667L11.5791 29.2695C11.4696 29.9306 11.2856 30.628 11.0072 31.3753C9.42218 29.8464 7.55637 27.5529 5.51009 25.332C4.32748 25.5954 3.67652 26.2676 3.66441 26.2877L10.1225 33.2746C8.44827 35.1346 11.3337 36.3969 12.6448 34.9022C17.1561 29.6268 13.6801 23.3807 12.2027 17.377L15.4909 20.9666C16.6501 21.6047 18.2016 21.5861 18.7766 21.233L12.464 14.6437C12.7901 13.9128 13.1341 13.7306 13.9202 13.3407L20.0776 19.7821C20.4675 19.047 21.0476 18.3453 20.3127 16.7747L16.3047 12.3221C16.9893 12.0919 18.506 12.5705 19.6941 12.9432L18.7219 9.69016C18.0369 9.53375 17.3717 9.45547 16.7326 9.44818V9.44811ZM6.83303 20.8407C3.69002 20.8079 1.96364 22.1057 0.482163 23.4141C-0.84438 24.5933 0.829196 26.7456 2.33047 25.6407C4.21247 23.9554 5.79851 23.0659 8.80672 23.2818L8.27016 20.9401C7.75988 20.8773 7.282 20.8454 6.83303 20.8408V20.8407Z" fill="url(#paint0_linear_53_198)"/>
<defs>
<linearGradient id="paint0_linear_53_198" x1="17.5" y1="0" x2="17.5" y2="35.5618" gradientUnits="userSpaceOnUse">
<stop stop-color="#EA714B"/>
<stop offset="1" stop-color="#4BC4EA"/>
</linearGradient>
</defs>
</svg>
