<svg width="81" height="18" viewBox="0 0 81 18" fill="none" xmlns="http://www.w3.org/2000/svg">
<path d="M0.503906 17L5.87109 8.52734V8.43359L0.539062 0.0898438H4.69922L8.28516 6.18359H8.37891L12 0.0898438H15.9492L10.418 8.50391V8.58594L15.8789 17H11.8477L8.14453 11.082H8.05078L4.32422 17H0.503906ZM22.6641 6.37109C21.7188 6.37109 20.9336 6.69922 20.3086 7.35547C19.6914 8.00391 19.3516 8.83984 19.2891 9.86328H25.9102C25.8867 8.83203 25.5781 7.99219 24.9844 7.34375C24.3906 6.69531 23.6172 6.37109 22.6641 6.37109ZM25.8633 13.5078H27.8672C27.6875 14.5859 27.125 15.4727 26.1797 16.168C25.2422 16.8633 24.1133 17.2109 22.793 17.2109C21.0508 17.2109 19.6797 16.6484 18.6797 15.5234C17.6797 14.3984 17.1797 12.875 17.1797 10.9531C17.1797 9.04688 17.6797 7.51172 18.6797 6.34766C19.6875 5.18359 21.0273 4.60156 22.6992 4.60156C24.3398 4.60156 25.6367 5.15234 26.5898 6.25391C27.543 7.35547 28.0195 8.83203 28.0195 10.6836V11.457H19.2773V11.5742C19.2773 12.7461 19.5977 13.6836 20.2383 14.3867C20.8789 15.0898 21.7461 15.4414 22.8398 15.4414C23.6055 15.4414 24.2578 15.2656 24.7969 14.9141C25.3359 14.5625 25.6914 14.0938 25.8633 13.5078ZM30.082 17V4.8125H32.0039V6.75781H32.0508C32.4023 6.07812 32.9062 5.55078 33.5625 5.17578C34.2188 4.79297 35.0039 4.60156 35.918 4.60156C37.2461 4.60156 38.2812 5.00391 39.0234 5.80859C39.7656 6.60547 40.1367 7.69922 40.1367 9.08984V17H38.0977V9.45312C38.0977 8.46094 37.8633 7.70703 37.3945 7.19141C36.9258 6.66797 36.2266 6.40625 35.2969 6.40625C34.3359 6.40625 33.5664 6.71875 32.9883 7.34375C32.4102 7.96875 32.1211 8.79688 32.1211 9.82812V17H30.082ZM47.625 6.37109C46.6797 6.37109 45.8945 6.69922 45.2695 7.35547C44.6523 8.00391 44.3125 8.83984 44.25 9.86328H50.8711C50.8477 8.83203 50.5391 7.99219 49.9453 7.34375C49.3516 6.69531 48.5781 6.37109 47.625 6.37109ZM50.8242 13.5078H52.8281C52.6484 14.5859 52.0859 15.4727 51.1406 16.168C50.2031 16.8633 49.0742 17.2109 47.7539 17.2109C46.0117 17.2109 44.6406 16.6484 43.6406 15.5234C42.6406 14.3984 42.1406 12.875 42.1406 10.9531C42.1406 9.04688 42.6406 7.51172 43.6406 6.34766C44.6484 5.18359 45.9883 4.60156 47.6602 4.60156C49.3008 4.60156 50.5977 5.15234 51.5508 6.25391C52.5039 7.35547 52.9805 8.83203 52.9805 10.6836V11.457H44.2383V11.5742C44.2383 12.7461 44.5586 13.6836 45.1992 14.3867C45.8398 15.0898 46.707 15.4414 47.8008 15.4414C48.5664 15.4414 49.2188 15.2656 49.7578 14.9141C50.2969 14.5625 50.6523 14.0938 50.8242 13.5078ZM54.832 8.17578C54.832 7.12891 55.2539 6.27344 56.0977 5.60938C56.9492 4.9375 58.043 4.60156 59.3789 4.60156C60.6367 4.60156 61.6836 4.9375 62.5195 5.60938C63.3555 6.28125 63.7969 7.13281 63.8438 8.16406H61.8984C61.8281 7.57031 61.5625 7.10547 61.1016 6.76953C60.6484 6.43359 60.0508 6.26562 59.3086 6.26562C58.5664 6.26562 57.9688 6.43359 57.5156 6.76953C57.0625 7.09766 56.8359 7.53125 56.8359 8.07031C56.8359 8.89844 57.5117 9.48438 58.8633 9.82812L60.75 10.2852C61.9766 10.5977 62.8398 11.0039 63.3398 11.5039C63.8477 11.9961 64.1016 12.6914 64.1016 13.5898C64.1016 14.6523 63.6484 15.5234 62.7422 16.2031C61.8359 16.875 60.6719 17.2109 59.25 17.2109C57.9219 17.2109 56.8242 16.8828 55.957 16.2266C55.0977 15.5625 54.6133 14.6875 54.5039 13.6016H56.543C56.7695 14.8984 57.7148 15.5469 59.3789 15.5469C60.1992 15.5469 60.8477 15.3867 61.3242 15.0664C61.8086 14.7383 62.0508 14.2969 62.0508 13.7422C62.0508 13.3047 61.9062 12.957 61.6172 12.6992C61.3359 12.4414 60.8555 12.2227 60.1758 12.043L58.0312 11.4922C55.8984 10.9453 54.832 9.83984 54.832 8.17578ZM66.3281 17V4.8125H68.3672V17H66.3281ZM67.3477 2.76172C67.0039 2.76172 66.707 2.63672 66.457 2.38672C66.207 2.13672 66.082 1.83984 66.082 1.49609C66.082 1.14453 66.207 0.847656 66.457 0.605469C66.707 0.355469 67.0039 0.230469 67.3477 0.230469C67.6992 0.230469 68 0.355469 68.25 0.605469C68.5 0.847656 68.625 1.14453 68.625 1.49609C68.625 1.83984 68.5 2.13672 68.25 2.38672C68 2.63672 67.6992 2.76172 67.3477 2.76172ZM70.9102 8.17578C70.9102 7.12891 71.332 6.27344 72.1758 5.60938C73.0273 4.9375 74.1211 4.60156 75.457 4.60156C76.7148 4.60156 77.7617 4.9375 78.5977 5.60938C79.4336 6.28125 79.875 7.13281 79.9219 8.16406H77.9766C77.9062 7.57031 77.6406 7.10547 77.1797 6.76953C76.7266 6.43359 76.1289 6.26562 75.3867 6.26562C74.6445 6.26562 74.0469 6.43359 73.5938 6.76953C73.1406 7.09766 72.9141 7.53125 72.9141 8.07031C72.9141 8.89844 73.5898 9.48438 74.9414 9.82812L76.8281 10.2852C78.0547 10.5977 78.918 11.0039 79.418 11.5039C79.9258 11.9961 80.1797 12.6914 80.1797 13.5898C80.1797 14.6523 79.7266 15.5234 78.8203 16.2031C77.9141 16.875 76.75 17.2109 75.3281 17.2109C74 17.2109 72.9023 16.8828 72.0352 16.2266C71.1758 15.5625 70.6914 14.6875 70.582 13.6016H72.6211C72.8477 14.8984 73.793 15.5469 75.457 15.5469C76.2773 15.5469 76.9258 15.3867 77.4023 15.0664C77.8867 14.7383 78.1289 14.2969 78.1289 13.7422C78.1289 13.3047 77.9844 12.957 77.6953 12.6992C77.4141 12.4414 76.9336 12.2227 76.2539 12.043L74.1094 11.4922C71.9766 10.9453 70.9102 9.83984 70.9102 8.17578Z" fill="black"/>
</svg>
